<svg xmlns="http://www.w3.org/2000/svg" xmlns:xlink="http://www.w3.org/1999/xlink" version="1.1" id="Layer_1" x="0px" y="0px" viewBox="0 0 500 500" style="enable-background:new 0 0 500 500;" xml:space="preserve">
<style type="text/css">
	.st0{fill-rule:evenodd;clip-rule:evenodd;fill:none;}
	.st1{display:none;}
	.st2{display:inline;fill:#D5002B;}
	.st3{display:inline;}
	.st4{fill:#D5002B;}
	.st5{fill-rule:evenodd;clip-rule:evenodd;fill:#D5002B;}
	.st6{display:inline;fill-rule:evenodd;clip-rule:evenodd;fill:#D5002B;}
	.st7{display:none;fill:#D5002B;}
	.st8{fill:#EB6824;}
	.st9{fill:#E55025;}
	.st10{fill:#E22026;}
	.st11{fill:#AE2824;}
	.st12{fill:#FFFFFF;}
	.st13{display:inline;fill:none;}
	.st14{filter:url(#Adobe_OpacityMaskFilter);}
	.st15{enable-background:new    ;}
	.st16{clip-path:url(#SVGID_3_);}
	.st17{mask:url(#SVGID_1_);}
	.st18{clip-path:url(#SVGID_7_);fill-rule:evenodd;clip-rule:evenodd;fill:#D5002B;}
	.st19{filter:url(#Adobe_OpacityMaskFilter_1_);}
	.st20{clip-path:url(#SVGID_10_);}
	.st21{mask:url(#SVGID_8_);}
	.st22{filter:url(#Adobe_OpacityMaskFilter_2_);}
	.st23{clip-path:url(#SVGID_15_);}
	.st24{mask:url(#SVGID_13_);}
	.st25{filter:url(#Adobe_OpacityMaskFilter_3_);}
	.st26{clip-path:url(#SVGID_20_);}
	.st27{mask:url(#SVGID_18_);}
	.st28{clip-path:url(#SVGID_24_);fill-rule:evenodd;clip-rule:evenodd;fill:#D5002B;}
	.st29{filter:url(#Adobe_OpacityMaskFilter_4_);}
	.st30{clip-path:url(#SVGID_27_);}
	.st31{mask:url(#SVGID_25_);}
	.st32{clip-path:url(#SVGID_31_);fill-rule:evenodd;clip-rule:evenodd;fill:#D5002B;}
	.st33{filter:url(#Adobe_OpacityMaskFilter_5_);}
	.st34{clip-path:url(#SVGID_34_);}
	.st35{mask:url(#SVGID_32_);}
	.st36{clip-path:url(#SVGID_38_);fill-rule:evenodd;clip-rule:evenodd;fill:#D5002B;}
	.st37{filter:url(#Adobe_OpacityMaskFilter_6_);}
	.st38{clip-path:url(#SVGID_41_);}
	.st39{clip-path:url(#SVGID_43_);}
	.st40{mask:url(#SVGID_39_);}
</style>
<rect class="st0" width="500" height="500"/>













<g>
	<path class="st4" d="M260.3,399L260.3,399c-10.8,0.5-14.9,0.4-26.7-1.5c-40.3-6.5-61.1-2.8-92.6,2.9l-0.8,0.1   c-27,4.9-53.8-3.4-63.7-19.6c-7.4-12.1-13.7-49.3,0.7-97.2c15.5-51.4,67.3-83.6,67.9-83.9c13.1-8.2,27.1-12.4,41.5-12.4l4.3,0.1   c6.3,0.3,12.8,1.4,19.4,3.3l3.7,1.1c4,1.3,8.1,2.8,12.5,4.7c14.3,6.1,33.1,26.1,50.3,53.4c1,1.6,2.5,2.6,4.3,3   c1.8,0.4,3.6,0.1,5.2-0.9c1.6-1,2.6-2.5,3-4.3c0.4-1.8,0.1-3.6-0.9-5.2c-19-30.1-39.6-51.6-56.6-58.8c-0.9-0.4-1.9-0.8-2.9-1.2   c3.9-3.2,7.4-6.6,10.4-10c10.5-12,24-34,30.6-56.1c4-13.7,0.4-23.4-3.4-29.2c-5.2-7.9-13.9-13.2-23.7-14.4   c-9.2-1.1-18,2.5-27.2,6.4c-7.3,3-14.8,6.2-22.4,6.7c-14.5,0.9-27,0.8-46.5-9.5c-15.6-8.3-26.9-7.2-33.5-4.8   c-7.2,2.5-12.8,7.9-15.9,15c-8.6,20-2,37,6.8,55.5c9.7,20.4,26.4,35.8,36.6,43.9c-1.1,0.6-2.1,1.2-3,1.8   c-2.3,1.4-56.7,34.9-73.8,91.7c-15.8,52.6-8.2,93.6,0.7,108.4c10.2,16.8,33.9,27.6,60.4,27.6c5.8,0,11.7-0.5,17.5-1.6l0.8-0.1   c31.2-5.6,50-9,88-2.9c12.7,2.1,17.7,2.2,29.5,1.6c1.8-0.1,3.5-0.9,4.8-2.2c1.2-1.4,1.9-3.1,1.8-5   C267.3,401.7,264.2,398.8,260.3,399z M140.4,88.8c22.6,11.9,37.7,12,53.8,11c9.9-0.6,18.9-4.4,26.9-7.7c7.5-3.1,14.5-6.1,20.2-5.4   c5.7,0.7,10.9,3.8,13.8,8.3c3.1,4.8,3.7,10.9,1.7,17.7c-5.9,20.1-18.2,40.1-27.7,51c-5.4,6.2-11.9,11.1-15.7,13.7   c-2.8-0.8-5.6-1.4-8.3-1.9c8.6-9,18.5-21.8,21.3-35.4c0.8-3.7-1.6-7.4-5.3-8.2c-1.8-0.4-3.6,0-5.2,1c-1.5,1-2.6,2.6-3,4.4   c-3.3,15.5-20.2,31.4-25.9,36.5c0,0-0.1,0-0.1,0c-11,0-21.8,2-32,5.9c-7.1-5-27.6-21-38.2-43.1c-7.6-16-12.9-29.4-6.6-44.2   c1.6-3.6,4.3-6.2,7.8-7.5C123.7,82.7,131.5,84.1,140.4,88.8z"/>
	<path class="st4" d="M381,285.8c-4.3-3.5-12.5-3.3-24.5,0.5l-3.3,1.3c-4.6,1.5-9.5,2.3-11.6,2.3c0,0,0-0.1,0-0.1   c0-0.1,0.2-2.8,7.1-7.8c7-4.9,10-4.4,10.4-4.4c2.1,2.7,6,3.4,9,1.6c1.6-1,2.7-2.5,3.1-4.3c0.4-1.8,0.1-3.6-0.9-5.2   c-0.6-1-3.2-4.5-8.6-5.6c-4.5-0.9-9.5,0.1-15.1,3c-1.1-1.5-2.6-2.4-4.4-2.7c-1.8-0.3-3.6,0.1-5.1,1.2c-1.5,1.1-2.5,2.6-2.8,4.5   c-0.3,1.8,0.1,3.6,1.1,5.1c-4.9,4.6-7.4,9.4-7.6,14.2c-0.2,4.5,1.8,8.8,5.4,11.8c4.3,3.5,12.5,3.3,24.5-0.5l3.3-1.3   c4.6-1.5,9.5-2.3,11.6-2.3c0,0,0,0.1,0,0.1c0,0.1-0.2,2.8-7.1,7.8c-7,4.9-10,4.4-10.4,4.4c-2.2-2.7-6.1-3.4-9-1.6   c-1.6,1-2.6,2.5-3.1,4.3c-0.4,1.8-0.1,3.6,0.9,5.2c0.5,0.7,3,4.4,8.6,5.6c1.1,0.2,2.1,0.3,3.3,0.3c3.5,0,7.3-1,11.4-3.1   c1.3,1.3,3.1,2.1,5,2.1c1.4,0,2.8-0.4,4-1.3c1.5-1.1,2.5-2.6,2.8-4.5c0.2-1.4,0-2.9-0.6-4.2c5.2-4.7,7.9-9.7,8.1-14.6   C386.6,293.1,384.6,288.8,381,285.8z"/>
	<path class="st4" d="M438,370.6c4.8-6.4,7.2-13.4,7.2-20.6c0-8.9-3.8-17.6-11-25c-0.2-0.2-0.4-0.3-0.5-0.5c0-0.3,0-0.6,0-0.9   c0-2.6-0.3-5.2-1-7.8c-0.1-0.5-0.3-0.9-0.5-1.3c5-6.6,7.5-13.6,7.5-21c0-28-36.9-50-84-50c-47.1,0-84,22-84,50   c0,3.1,0.5,6.2,1.4,9.3c0,0,0,0,0,0c-4.9,6.5-7.4,13.5-7.4,20.9c0,9.2,4,18,11.5,25.7c0,0.2,0,0.5,0,0.7c0,3.3,0.5,6.5,1.5,9.7   c-4.6,6.3-7,13.3-7,20.2c0,28,36.9,50,84,50c47.1,0,84-22,84-50c0-2.4-0.3-4.9-0.9-7.3C438.7,371.9,438.4,371.2,438,370.6z    M355.7,329.7c-38.1,0-70.3-16.6-70.3-36.2c0-19.6,32.2-36.2,70.3-36.2c38.1,0,70.3,16.6,70.3,36.2   C426,313.1,393.8,329.7,355.7,329.7z M349.7,359.8c-38.1,0-70.3-16.6-70.3-36.2c0-2.3,0.5-4.7,1.4-7c14.2,16.6,42.5,26.9,74.8,26.9   c25.1,0,48.3-6.3,64-17.2C417.1,344.7,386.1,359.8,349.7,359.8z M286.7,373.6c14.3,16.4,42.5,26.4,74.5,26.4   c25.5,0,48.8-6.4,64.6-17.7c-2.5,18.5-33.6,33.8-70.1,33.8c-38.1,0-70.3-16.6-70.3-36.2C285.4,377.9,285.9,375.7,286.7,373.6z    M295.1,362c15,7.5,34.2,11.6,54.5,11.6c36.2,0,67.6-13.1,79.2-32.9c1.7,3.1,2.5,6.2,2.5,9.3c0,19.6-32.2,36.2-70.3,36.2   C332.2,386.2,305.2,376.1,295.1,362z"/>
	<path class="st4" d="M188.4,270.6c5.2,0,8.9,1.1,11.1,3.3c2.2,2.2,2.2,5.1,2.2,5.1c-0.1,3.7,2.9,6.9,6.6,7.1c3.9,0.1,7-2.8,7.1-6.6   c0-0.9,0.2-8.6-6-15.1c-3.5-3.7-8.3-6-14.2-7v-4.7c0-3.8-3.1-6.9-6.9-6.9s-6.9,3.1-6.9,6.9v4.7c-6.2,1.1-11.1,3.7-14.6,7.8   c-4.3,5.1-5.9,12.4-4.6,20c1.8,10.3,16.7,18.2,21.2,20.4c0.2,0.1,0.3,0.2,0.4,0.2l4.1,1.6c6.8,3.4,13.1,8.5,13.4,10.3   c0.3,1.7,0.8,6-1.6,8.8c-1.9,2.3-5.6,3.4-10.9,3.4c-5.2,0-8.9-1.1-11.1-3.3c-2.2-2.2-2.2-5.1-2.2-5.1c0.1-3.8-2.8-7-6.6-7.1   c-1.8-0.1-3.6,0.5-4.9,1.7c-1.4,1.2-2.2,3-2.3,4.9c0,0.9-0.2,8.7,6,15.1c3.4,3.5,8,5.9,13.6,6.9v3.1c0,3.8,3.1,6.9,6.9,6.9   s6.9-3.1,6.9-6.9v-2.9c6.5-1,11.7-3.7,15.2-7.9c4.3-5.1,5.9-12.4,4.6-20c-1.8-10.3-16.7-18.2-21.2-20.4c-0.2-0.1-0.3-0.2-0.5-0.2   l-4.1-1.6c-6.8-3.4-13.1-8.5-13.4-10.3c-0.3-1.7-0.8-6,1.6-8.8C179.4,271.8,183,270.6,188.4,270.6z"/>
	<path class="st4" d="M242.7,269.6L242.7,269.6c1.2,2.3,3.5,3.7,6.1,3.7c1.1,0,2.2-0.3,3.2-0.8c1.6-0.8,2.8-2.3,3.4-4   c0.6-1.8,0.4-3.6-0.5-5.2c-18.5-35.5-37.3-47.4-38.1-47.9c-3.2-2-7.5-1-9.5,2.2c-1,1.6-1.3,3.4-0.8,5.2c0.4,1.8,1.5,3.3,3.1,4.3   C209.8,227.1,226.1,237.6,242.7,269.6z"/>
</g>




































</svg>