<svg xmlns="http://www.w3.org/2000/svg" xmlns:xlink="http://www.w3.org/1999/xlink" version="1.1" id="Layer_1" x="0px" y="0px" viewBox="0 0 500 500" style="enable-background:new 0 0 500 500;" xml:space="preserve">
<style type="text/css">
	.st0{fill-rule:evenodd;clip-rule:evenodd;fill:none;}
	.st1{display:none;}
	.st2{display:inline;fill:#D5002B;}
	.st3{display:inline;}
	.st4{fill:#D5002B;}
	.st5{fill-rule:evenodd;clip-rule:evenodd;fill:#D5002B;}
	.st6{display:inline;fill-rule:evenodd;clip-rule:evenodd;fill:#D5002B;}
	.st7{display:none;fill:#D5002B;}
	.st8{fill:#EB6824;}
	.st9{fill:#E55025;}
	.st10{fill:#E22026;}
	.st11{fill:#AE2824;}
	.st12{fill:#FFFFFF;}
	.st13{display:inline;fill:none;}
	.st14{filter:url(#Adobe_OpacityMaskFilter);}
	.st15{enable-background:new    ;}
	.st16{clip-path:url(#SVGID_3_);}
	.st17{mask:url(#SVGID_1_);}
	.st18{clip-path:url(#SVGID_7_);fill-rule:evenodd;clip-rule:evenodd;fill:#D5002B;}
	.st19{filter:url(#Adobe_OpacityMaskFilter_1_);}
	.st20{clip-path:url(#SVGID_10_);}
	.st21{mask:url(#SVGID_8_);}
	.st22{filter:url(#Adobe_OpacityMaskFilter_2_);}
	.st23{clip-path:url(#SVGID_15_);}
	.st24{mask:url(#SVGID_13_);}
	.st25{filter:url(#Adobe_OpacityMaskFilter_3_);}
	.st26{clip-path:url(#SVGID_20_);}
	.st27{mask:url(#SVGID_18_);}
	.st28{clip-path:url(#SVGID_24_);fill-rule:evenodd;clip-rule:evenodd;fill:#D5002B;}
	.st29{filter:url(#Adobe_OpacityMaskFilter_4_);}
	.st30{clip-path:url(#SVGID_27_);}
	.st31{mask:url(#SVGID_25_);}
	.st32{clip-path:url(#SVGID_31_);fill-rule:evenodd;clip-rule:evenodd;fill:#D5002B;}
	.st33{filter:url(#Adobe_OpacityMaskFilter_5_);}
	.st34{clip-path:url(#SVGID_34_);}
	.st35{mask:url(#SVGID_32_);}
	.st36{clip-path:url(#SVGID_38_);fill-rule:evenodd;clip-rule:evenodd;fill:#D5002B;}
	.st37{filter:url(#Adobe_OpacityMaskFilter_6_);}
	.st38{clip-path:url(#SVGID_41_);}
	.st39{clip-path:url(#SVGID_43_);}
	.st40{mask:url(#SVGID_39_);}
</style>
<rect class="st0" width="500" height="500"/>



































<g>
	<g>
		<g>
			<g>
				<path class="st4" d="M250,298.6c-9.8,0-17.9,8-17.9,17.9c0,9.8,8,17.8,17.9,17.8s17.9-8,17.9-17.8      C267.9,306.6,259.9,298.6,250,298.6z"/>
			</g>
			<g>
				<path class="st4" d="M250,50.2C128.1,50.2,28.9,127.3,28.9,222c0,57.8,36.9,111.3,98.8,143.2l1.1,0.5l-0.3,1.2      c-5.7,22.9-19.2,52.4-51.5,63c-3.3,1.1-5.4,4.1-5.3,7.5c0.1,3.4,2.4,6.4,5.7,7.3c12,3.3,24.3,5,36.7,5      c45.4,0,96-22.3,125.9-55.6l0.5-0.5l0.7,0c3.3,0.1,6.2,0.2,8.9,0.2c121.9,0,221.1-77.1,221.1-171.8      C471.1,127.3,371.9,50.2,250,50.2z M113.8,434.3c-2.1,0-4.2-0.1-6.2-0.2l-4-0.2l3.2-2.5c19.2-14.8,32.5-38.5,38.5-68.4      c0.7-3.5-1.1-7-4.3-8.5C80.5,325.6,44.4,276.1,44.4,222c0-86.2,92.2-156.3,205.6-156.3c113.4,0,205.6,70.1,205.6,156.3      c0,86.2-92.2,156.4-205.6,156.4c-3.9,0-8-0.1-12.6-0.3c-2.5,0-4.8,1-6.3,2.7c-13.5,16.1-33.3,30.3-55.5,39.9      C155.3,429.6,133.6,434.3,113.8,434.3z"/>
			</g>
			<g>
				<path class="st4" d="M248.2,135.9c15.4,0.2,27.6,6.7,34.6,18.3c7.3,12.3,7.6,28.3,0.6,41.8c-4.9,9.6-15.3,15.3-26.4,21.3      c-14.8,8.1-33.2,18.1-31.9,40.7c0.5,8.4,4.4,15.5,11,20.2c4.5,3.2,10,4.9,15.6,4.9c2.5,0,5-0.3,7.4-1c2-0.6,3.6-1.9,4.6-3.7      c1-1.8,1.2-3.9,0.7-5.9c-0.6-2-1.9-3.7-3.7-4.7c-1.8-1-3.9-1.2-5.9-0.6c-3.3,1-7,0.3-9.8-1.7c-1.9-1.3-4.2-3.9-4.5-8.5      c-0.7-12.1,8.6-17.8,23.9-26.2c12-6.6,25.6-14,32.7-27.8c9.4-18.3,9-40-1-56.9c-9.6-16.1-27-25.5-47.6-25.8      c-17.8-0.5-34.3,8-44.1,22.5c-9.1,13.5-10.8,30.4-4.5,45.1c1.7,3.9,6.2,5.7,10.1,4.1c1.9-0.8,3.4-2.3,4.1-4.2      c0.8-1.9,0.8-4-0.1-5.9c-4.3-10.1-3.2-21.2,3.1-30.5C223.8,141.8,235.4,135.9,248.2,135.9z"/>
			</g>
		</g>
	</g>
</g>














</svg>