<svg xmlns="http://www.w3.org/2000/svg" xmlns:xlink="http://www.w3.org/1999/xlink" version="1.1" id="Layer_1" x="0px" y="0px" viewBox="0 0 500 500" style="enable-background:new 0 0 500 500;" xml:space="preserve">
<style type="text/css">
	.st0{fill-rule:evenodd;clip-rule:evenodd;fill:none;}
	.st1{display:none;}
	.st2{display:inline;fill:#D5002B;}
	.st3{fill:#D5002B;}
	.st4{fill-rule:evenodd;clip-rule:evenodd;fill:#D5002B;}
	.st5{display:inline;}
	.st6{display:inline;fill-rule:evenodd;clip-rule:evenodd;fill:#D5002B;}
	.st7{display:none;fill:#D5002B;}
	.st8{fill:#EB6824;}
	.st9{fill:#E55025;}
	.st10{fill:#E22026;}
	.st11{fill:#AE2824;}
	.st12{fill:#FFFFFF;}
	.st13{display:inline;fill:none;}
	.st14{filter:url(#Adobe_OpacityMaskFilter);}
	.st15{enable-background:new    ;}
	.st16{clip-path:url(#SVGID_3_);}
	.st17{mask:url(#SVGID_1_);}
	.st18{clip-path:url(#SVGID_7_);fill-rule:evenodd;clip-rule:evenodd;fill:#D5002B;}
	.st19{filter:url(#Adobe_OpacityMaskFilter_1_);}
	.st20{clip-path:url(#SVGID_10_);}
	.st21{mask:url(#SVGID_8_);}
	.st22{filter:url(#Adobe_OpacityMaskFilter_2_);}
	.st23{clip-path:url(#SVGID_15_);}
	.st24{mask:url(#SVGID_13_);}
	.st25{filter:url(#Adobe_OpacityMaskFilter_3_);}
	.st26{clip-path:url(#SVGID_20_);}
	.st27{mask:url(#SVGID_18_);}
	.st28{clip-path:url(#SVGID_24_);fill-rule:evenodd;clip-rule:evenodd;fill:#D5002B;}
	.st29{filter:url(#Adobe_OpacityMaskFilter_4_);}
	.st30{clip-path:url(#SVGID_27_);}
	.st31{mask:url(#SVGID_25_);}
	.st32{clip-path:url(#SVGID_31_);fill-rule:evenodd;clip-rule:evenodd;fill:#D5002B;}
	.st33{filter:url(#Adobe_OpacityMaskFilter_5_);}
	.st34{clip-path:url(#SVGID_34_);}
	.st35{mask:url(#SVGID_32_);}
	.st36{clip-path:url(#SVGID_38_);fill-rule:evenodd;clip-rule:evenodd;fill:#D5002B;}
	.st37{filter:url(#Adobe_OpacityMaskFilter_6_);}
	.st38{clip-path:url(#SVGID_41_);}
	.st39{clip-path:url(#SVGID_43_);}
	.st40{mask:url(#SVGID_39_);}
</style>
<rect class="st0" width="500" height="500"/>


<g>
	<g>
		<g>
			<g>
				<path class="st3" d="M373.2,75.2h-57.4V56.7c0-4-3.2-7.3-7.3-7.3c-4,0-7.3,3.2-7.3,7.3v18.5H141.9V56.7c0-4-3.2-7.3-7.3-7.3      c-4,0-7.3,3.2-7.3,7.3v18.5H63.7c-4,0-7.3,3.2-7.3,7.3v309.5c0,4,3.2,7.3,7.3,7.3h199.7c-2.4-4.6-4.5-9.5-6.1-14.5H70.9V159.8      h295v101.4c5,0.9,9.8,2.3,14.5,4V82.5C380.4,78.4,377.2,75.2,373.2,75.2z M70.9,145.3V89.7h56.5v20.4c0,4,3.3,7.3,7.3,7.3      c4,0,7.3-3.2,7.3-7.3V89.7h159.3v20.4c0,4,3.3,7.3,7.3,7.3c4,0,7.3-3.2,7.3-7.3V89.7h50.1v55.6H70.9z"/>
				<path class="st3" d="M380.4,265.1c-4.7-1.7-9.5-3-14.5-4c-5.8-1.1-11.8-1.7-17.9-1.7c-52.7,0-95.5,42.9-95.5,95.5      c0,10.4,1.7,20.3,4.7,29.7c1.6,5,3.7,9.9,6.1,14.5c16,30.5,47.9,51.4,84.7,51.4c52.7,0,95.5-42.9,95.5-95.5      C443.6,313.7,417.2,278.4,380.4,265.1z M348,438.9c-30.1,0-56.5-15.9-71.3-39.8c-2.8-4.6-5.2-9.4-7.2-14.5      c-3.5-9.2-5.4-19.2-5.4-29.7c0-46.3,37.7-83.9,83.9-83.9c6.1,0,12.1,0.7,17.9,1.9c5,1.1,9.9,2.6,14.5,4.6      c30.3,12.7,51.6,42.6,51.6,77.4C432,401.3,394.3,438.9,348,438.9z"/>
			</g>
			<path class="st3" d="M363.1,373.7h-57.7c-4.6,0-8.3-3.7-8.3-8.3c0-4.6,3.7-8.3,8.3-8.3h41.1v-55.7c0-4.6,3.7-8.3,8.3-8.3     c4.6,0,8.3,3.7,8.3,8.3V373.7z"/>
			<path class="st4" d="M218.8,283.8c-12.1,0-13.5-5.8-13.5-8.1c0.2-4.4-3.3-8.2-7.7-8.4c-4.5-0.4-8.2,3.3-8.4,7.7     c0,1-0.2,9.5,6.6,16.6c3.6,3.8,8.5,6.2,14.3,7.4v2.8c0,4.5,3.6,8.1,8.1,8.1c4.5,0,8.1-3.6,8.1-8.1v-2.4c6.8-1.2,12.2-4,16-8.6     c4.7-5.6,6.5-13.6,5-21.9c-2-11.3-18.1-19.9-23.5-22.5l-4-1.6c-6.4-3.1-13.4-8.4-14.1-10.6c-0.2-1.3-0.8-5.9,1.5-8.8     c2.3-2.8,7.3-3.4,11-3.4c12.1,0,13.5,5.8,13.5,8.3c-0.1,4.4,3.4,8,7.7,8.2c4.3,0.1,8.2-3.3,8.4-7.7c0-1,0.2-9.5-6.6-16.6     c-3.8-3.9-8.8-6.4-15-7.5v-4.4c0-4.5-3.6-8.1-8.1-8.1c-4.4,0-8.1,3.6-8.1,8.1v4.4c-6.5,1.2-11.7,4-15.3,8.4     c-4.7,5.6-6.5,13.6-5,21.9c2,11.3,18.1,19.9,23.5,22.5l4.3,1.7c6.4,3.2,13.1,8.3,13.8,10.5c0.2,1.3,0.8,5.9-1.5,8.7     C227.4,283.3,222.5,283.8,218.8,283.8"/>
		</g>
	</g>
</g>















































</svg>