<svg xmlns="http://www.w3.org/2000/svg" xmlns:xlink="http://www.w3.org/1999/xlink" version="1.1" id="Layer_1" x="0px" y="0px" viewBox="0 0 500 500" style="enable-background:new 0 0 500 500;" xml:space="preserve">
<style type="text/css">
	.st0{fill-rule:evenodd;clip-rule:evenodd;fill:none;}
	.st1{display:none;}
	.st2{display:inline;fill:#D5002B;}
	.st3{display:inline;}
	.st4{fill:#D5002B;}
	.st5{fill-rule:evenodd;clip-rule:evenodd;fill:#D5002B;}
	.st6{display:inline;fill-rule:evenodd;clip-rule:evenodd;fill:#D5002B;}
	.st7{display:none;fill:#D5002B;}
	.st8{fill:#EB6824;}
	.st9{fill:#E55025;}
	.st10{fill:#E22026;}
	.st11{fill:#AE2824;}
	.st12{fill:#FFFFFF;}
	.st13{display:inline;fill:none;}
	.st14{filter:url(#Adobe_OpacityMaskFilter);}
	.st15{enable-background:new    ;}
	.st16{clip-path:url(#SVGID_3_);}
	.st17{mask:url(#SVGID_1_);}
	.st18{clip-path:url(#SVGID_7_);fill-rule:evenodd;clip-rule:evenodd;fill:#D5002B;}
	.st19{filter:url(#Adobe_OpacityMaskFilter_1_);}
	.st20{clip-path:url(#SVGID_10_);}
	.st21{mask:url(#SVGID_8_);}
	.st22{filter:url(#Adobe_OpacityMaskFilter_2_);}
	.st23{clip-path:url(#SVGID_15_);}
	.st24{mask:url(#SVGID_13_);}
	.st25{filter:url(#Adobe_OpacityMaskFilter_3_);}
	.st26{clip-path:url(#SVGID_20_);}
	.st27{mask:url(#SVGID_18_);}
	.st28{clip-path:url(#SVGID_24_);fill-rule:evenodd;clip-rule:evenodd;fill:#D5002B;}
	.st29{filter:url(#Adobe_OpacityMaskFilter_4_);}
	.st30{clip-path:url(#SVGID_27_);}
	.st31{mask:url(#SVGID_25_);}
	.st32{clip-path:url(#SVGID_31_);fill-rule:evenodd;clip-rule:evenodd;fill:#D5002B;}
	.st33{filter:url(#Adobe_OpacityMaskFilter_5_);}
	.st34{clip-path:url(#SVGID_34_);}
	.st35{mask:url(#SVGID_32_);}
	.st36{clip-path:url(#SVGID_38_);fill-rule:evenodd;clip-rule:evenodd;fill:#D5002B;}
	.st37{filter:url(#Adobe_OpacityMaskFilter_6_);}
	.st38{clip-path:url(#SVGID_41_);}
	.st39{clip-path:url(#SVGID_43_);}
	.st40{mask:url(#SVGID_39_);}
</style>
<rect class="st0" width="500" height="500"/>



















<g>
	<path class="st4" d="M137.6,228c0,4.2,3.4,7.6,7.6,7.6h27.6v27.6c0,4.2,3.4,7.6,7.6,7.6c4.2,0,7.6-3.4,7.6-7.6v-27.6h27.6   c4.2,0,7.6-3.4,7.6-7.6c0-4.2-3.4-7.6-7.6-7.6h-27.6v-27.6c0-4.2-3.4-7.6-7.6-7.6c-4.2,0-7.6,3.4-7.6,7.6v27.6h-27.6   C141,220.5,137.6,223.9,137.6,228z"/>
	<path class="st4" d="M147.9,388.4c0,2,0.8,3.9,2.2,5.3c1.4,1.4,3.3,2.2,5.3,2.2c2,0,3.9-0.8,5.3-2.2l19.5-19.5l19.5,19.5   c1.4,1.4,3.3,2.2,5.3,2.2c2,0,3.9-0.8,5.3-2.2c1.4-1.4,2.2-3.3,2.2-5.3c0-2-0.8-3.9-2.2-5.3L191,363.6l19.5-19.5   c1.4-1.4,2.2-3.3,2.2-5.3c0-2-0.8-3.9-2.2-5.3c-1.4-1.4-3.3-2.2-5.3-2.2s-3.9,0.8-5.3,2.2l-19.5,19.5l-19.5-19.5   c-1.4-1.4-3.3-2.2-5.3-2.2c-2,0-3.9,0.8-5.3,2.2c-1.4,1.4-2.2,3.3-2.2,5.3c0,2,0.8,3.9,2.2,5.3l19.5,19.5l-19.5,19.5   C148.7,384.5,147.9,386.4,147.9,388.4z"/>
	<path class="st4" d="M275.3,233.5c0,4.2,3.4,7.6,7.6,7.6h70.3c4.2,0,7.6-3.4,7.6-7.6c0-4.2-3.4-7.6-7.6-7.6h-70.3   C278.7,226,275.3,229.4,275.3,233.5z"/>
	<path class="st4" d="M282.1,373.5h70.3c4.2,0,7.6-3.4,7.6-7.6c0-4.2-3.4-7.6-7.6-7.6h-70.3c-4.2,0-7.6,3.4-7.6,7.6   C274.5,370.1,277.9,373.5,282.1,373.5z"/>
	<path class="st4" d="M317.2,348.5c5.4,0,9.8-4.4,9.8-9.8c0-5.4-4.4-9.8-9.8-9.8s-9.8,4.4-9.8,9.8   C307.4,344.1,311.8,348.5,317.2,348.5z"/>
	<path class="st4" d="M317.2,383.4c-5.4,0-9.8,4.4-9.8,9.8c0,5.4,4.4,9.8,9.8,9.8s9.8-4.4,9.8-9.8   C327,387.8,322.6,383.4,317.2,383.4z"/>
	<path class="st4" d="M375.5,157.3h-39.3v15.1h39.3c0.5,0,0.9,0.4,0.9,0.9v117.9H257.6V183.9h-15.1v107.3H123.7V173.3   c0-0.5,0.4-0.9,0.9-0.9h37.3v-15.1h-37.3c-8.8,0-16,7.2-16,16v250.9c0,8.8,7.2,16,16,16h250.9c8.8,0,16-7.2,16-16V173.3   C391.5,164.5,384.3,157.3,375.5,157.3z M376.3,306.3v117.9c0,0.5-0.4,0.9-0.9,0.9H257.6V306.3H376.3z M242.4,306.3v118.8H124.5   c-0.5,0-0.9-0.4-0.9-0.9V306.3H242.4z"/>
	<path class="st4" d="M254,176.7c32.2,0,58.4-26.2,58.4-58.4c0-32.2-26.2-58.4-58.4-58.4c-32.2,0-58.4,26.2-58.4,58.4   C195.5,150.5,221.7,176.7,254,176.7z M208.7,118.2c0-25,20.3-45.3,45.3-45.3s45.3,20.3,45.3,45.3c0,25-20.3,45.3-45.3,45.3   S208.7,143.2,208.7,118.2z"/>
	<path class="st4" d="M248.2,145.7v0.8c0,3.1,2.5,5.6,5.6,5.6c3.1,0,5.6-2.5,5.6-5.6v-0.5c3.7-0.8,6.7-2.5,8.9-5.1   c2.9-3.4,4-8.2,3.1-13.3c-1.2-6.7-10.1-11.7-14-13.5l-2.2-0.8c-3.8-1.8-7.1-4.6-7.5-5.4c-0.1-0.6-0.4-2.8,0.7-4.1   c0.8-1,2.8-1.6,5.5-1.6c4.2,0,6.6,1.4,6.7,3.7c-0.1,3,2.3,5.6,5.4,5.7c3.1,0,5.7-2.3,5.8-5.4c0-1,0-6-4-10.1   c-2.1-2.2-4.8-3.6-8.2-4.4V90c0-3.1-2.5-5.6-5.6-5.6c-3.1,0-5.6,2.5-5.6,5.6v1.7c-3.6,0.8-6.4,2.5-8.5,4.9c-2.9,3.4-4,8.2-3.1,13.3   c1.2,6.7,10.1,11.7,14,13.5l2.4,0.9c3.8,1.9,7,4.5,7.3,5.3c0.1,0.6,0.4,2.8-0.7,4.1c-0.8,1-2.8,1.6-5.5,1.6c-6,0-6.7-2.5-6.7-3.6   c0.1-3.1-2.3-5.7-5.3-5.8c-1.4-0.1-2.8,0.3-3.9,1.3c-1.1,1-1.8,2.5-1.9,4c0,1,0,6,4,10.1C242.3,143.5,245,144.9,248.2,145.7z"/>
</g>






























</svg>