<svg xmlns="http://www.w3.org/2000/svg" xmlns:xlink="http://www.w3.org/1999/xlink" version="1.1" id="Layer_1" x="0px" y="0px" viewBox="0 0 500 500" style="enable-background:new 0 0 500 500;" xml:space="preserve">
<style type="text/css">
	.st0{fill-rule:evenodd;clip-rule:evenodd;fill:none;}
	.st1{display:none;}
	.st2{display:inline;fill:#D5002B;}
	.st3{display:inline;}
	.st4{fill:#D5002B;}
	.st5{fill-rule:evenodd;clip-rule:evenodd;fill:#D5002B;}
	.st6{display:inline;fill-rule:evenodd;clip-rule:evenodd;fill:#D5002B;}
	.st7{display:none;fill:#D5002B;}
	.st8{fill:#EB6824;}
	.st9{fill:#E55025;}
	.st10{fill:#E22026;}
	.st11{fill:#AE2824;}
	.st12{fill:#FFFFFF;}
	.st13{display:inline;fill:none;}
	.st14{filter:url(#Adobe_OpacityMaskFilter);}
	.st15{enable-background:new    ;}
	.st16{clip-path:url(#SVGID_3_);}
	.st17{mask:url(#SVGID_1_);}
	.st18{clip-path:url(#SVGID_7_);fill-rule:evenodd;clip-rule:evenodd;fill:#D5002B;}
	.st19{filter:url(#Adobe_OpacityMaskFilter_1_);}
	.st20{clip-path:url(#SVGID_10_);}
	.st21{mask:url(#SVGID_8_);}
	.st22{filter:url(#Adobe_OpacityMaskFilter_2_);}
	.st23{clip-path:url(#SVGID_15_);}
	.st24{mask:url(#SVGID_13_);}
	.st25{filter:url(#Adobe_OpacityMaskFilter_3_);}
	.st26{clip-path:url(#SVGID_20_);}
	.st27{mask:url(#SVGID_18_);}
	.st28{clip-path:url(#SVGID_24_);fill-rule:evenodd;clip-rule:evenodd;fill:#D5002B;}
	.st29{filter:url(#Adobe_OpacityMaskFilter_4_);}
	.st30{clip-path:url(#SVGID_27_);}
	.st31{mask:url(#SVGID_25_);}
	.st32{clip-path:url(#SVGID_31_);fill-rule:evenodd;clip-rule:evenodd;fill:#D5002B;}
	.st33{filter:url(#Adobe_OpacityMaskFilter_5_);}
	.st34{clip-path:url(#SVGID_34_);}
	.st35{mask:url(#SVGID_32_);}
	.st36{clip-path:url(#SVGID_38_);fill-rule:evenodd;clip-rule:evenodd;fill:#D5002B;}
	.st37{filter:url(#Adobe_OpacityMaskFilter_6_);}
	.st38{clip-path:url(#SVGID_41_);}
	.st39{clip-path:url(#SVGID_43_);}
	.st40{mask:url(#SVGID_39_);}
</style>
<rect class="st0" width="500" height="500"/>














<g>
	<path class="st4" d="M321.5,179.8c-7.3-63.4-61.5-112.1-126-112.1c-69.9,0-126.8,56.9-126.8,126.8c0,63.3,47.7,117.3,109.8,125.7   c7.3,63,61,112.1,125.9,112.1c69.9,0,126.8-56.9,126.8-126.8C431.3,241.3,383.4,188.2,321.5,179.8z M84.7,194.5   c0-61.1,49.7-110.8,110.8-110.8c55.3,0,101.9,41.1,109.6,94.9c-0.2,0-0.5,0-0.7,0c-29.9,0-57.4,10.4-79.1,27.8   c-9.3-9.5-23.2-16.6-25.5-17.8l-6.8-2.7c-9.9-5-24.2-15.1-25.3-21.2c-0.6-3.6-1.5-12.7,3.7-19c4.1-4.8,11.2-7.2,21.3-7.2   c9.8,0,17,2.3,21.5,6.8c5.1,5.2,5.1,11.8,5.1,12.2c-0.1,4.2,3.1,7.7,7.3,7.8c4.2,0.2,7.7-3.1,7.9-7.3c0.1-1.3,0.2-13.3-9.2-23.1   c-6-6.3-14.4-10-25-11.2V112c0-4.2-3.4-7.6-7.6-7.6c-4.2,0-7.6,3.4-7.6,7.6v11.8c-11,1.3-19.5,5.3-25.3,12.2   c-9.4,11.2-8.1,25.6-7.1,31.4c2.8,16.2,28.4,29.7,34.1,32.5l6.8,2.7c4.2,2.1,14.2,7.9,20.5,14.1c-9.5,9.7-17.5,20.9-23.6,33.2   c-8.1-0.5-14.2-2.7-18.1-6.7c-5.2-5.2-5.1-11.9-5.1-12.1c0.2-4.2-3.1-7.7-7.3-7.9c-4.1,0-7.7,3.1-7.9,7.3   c-0.1,1.3-0.2,13.3,9.2,23.1c5.7,5.9,13.5,9.6,23.2,11c-4.2,12.4-6.6,25.6-6.8,39.4C124.9,295.3,84.7,248.8,84.7,194.5z    M304.5,416.3c-61.1,0-110.8-49.7-110.8-110.8c0-61.1,49.7-110.8,110.8-110.8c61.1,0,110.8,49.7,110.8,110.8   C415.3,366.6,365.6,416.3,304.5,416.3z"/>
	<path class="st4" d="M354.5,359.8c-0.4,0.4-9.4,10.8-27.3,10.8c-10.1,0-16.8-5.6-24.5-12.1c-3-2.5-6.2-5.2-9.8-7.7   c1-7.5,0.8-15.6-0.5-23.8h26.2c4.2,0,7.6-3.4,7.6-7.6c0-4.2-3.4-7.6-7.6-7.6h-29.9c-0.8-2.5-1.8-5-2.8-7.5h40.7   c4.2,0,7.6-3.4,7.6-7.6c0-4.2-3.4-7.6-7.6-7.6h-47.9c-7.6-19.3-3.9-36,10.2-43.7c8.9-4.9,17.1-6.2,24.4-3.9   c12.3,3.9,18.9,16.8,19.1,17.1c1.8,3.8,6.4,5.3,10.2,3.5c3.8-1.8,5.3-6.4,3.5-10.2c-0.4-0.8-9.4-18.9-28-24.9   c-11.5-3.7-23.7-2-36.4,5c-16.7,9.2-27.5,29.7-19,57.1h-5.4c-4.2,0-7.6,3.4-7.6,7.6c0,4.2,3.4,7.6,7.6,7.6h11.8   c0,0.1,0.1,0.2,0.1,0.2c1.3,2.4,2.4,4.8,3.3,7.2h-23.3c-4.2,0-7.6,3.4-7.6,7.6c0,4.2,3.4,7.6,7.6,7.6H277c1.1,6,1.5,11.8,1.2,17.2   c-6.3-1.5-13.7-1.5-22.5,1.1c-9.7,2.9-15.7,11.6-14.6,21.2c0.9,8.3,7.6,17.1,20.3,17.8c10.1,0.5,18.8-4,24.6-13   c0.9-1.5,1.8-3.1,2.6-4.7c1.4,1.1,2.9,2.4,4.4,3.6c8.7,7.4,18.6,15.7,34.3,15.7c25.5,0,38.5-15.7,39.1-16.4c2.6-3.2,2.2-8-1.1-10.6   C362,356.1,357.2,356.6,354.5,359.8z M273.2,363c-3.7,5.8-8,6.2-10.9,6c-3.5-0.2-5.8-1.8-6.1-4.3c-0.1-0.9-0.1-3.7,3.8-4.9   c3.6-1,6.7-1.5,9.6-1.5c2,0,3.9,0.2,5.7,0.7C274.6,360.5,273.9,361.8,273.2,363z"/>
</g>



































</svg>