<svg xmlns="http://www.w3.org/2000/svg" xmlns:xlink="http://www.w3.org/1999/xlink" version="1.1" id="Layer_1" x="0px" y="0px" viewBox="0 0 500 500" style="enable-background:new 0 0 500 500;" xml:space="preserve">
<style type="text/css">
	.st0{fill-rule:evenodd;clip-rule:evenodd;fill:none;}
	.st1{display:none;}
	.st2{display:inline;fill:#D5002B;}
	.st3{display:inline;}
	.st4{fill:#D5002B;}
	.st5{fill-rule:evenodd;clip-rule:evenodd;fill:#D5002B;}
	.st6{display:inline;fill-rule:evenodd;clip-rule:evenodd;fill:#D5002B;}
	.st7{display:none;fill:#D5002B;}
	.st8{fill:#EB6824;}
	.st9{fill:#E55025;}
	.st10{fill:#E22026;}
	.st11{fill:#AE2824;}
	.st12{fill:#FFFFFF;}
	.st13{display:inline;fill:none;}
	.st14{filter:url(#Adobe_OpacityMaskFilter);}
	.st15{enable-background:new    ;}
	.st16{clip-path:url(#SVGID_3_);}
	.st17{mask:url(#SVGID_1_);}
	.st18{clip-path:url(#SVGID_7_);fill-rule:evenodd;clip-rule:evenodd;fill:#D5002B;}
	.st19{filter:url(#Adobe_OpacityMaskFilter_1_);}
	.st20{clip-path:url(#SVGID_10_);}
	.st21{mask:url(#SVGID_8_);}
	.st22{filter:url(#Adobe_OpacityMaskFilter_2_);}
	.st23{clip-path:url(#SVGID_15_);}
	.st24{mask:url(#SVGID_13_);}
	.st25{filter:url(#Adobe_OpacityMaskFilter_3_);}
	.st26{clip-path:url(#SVGID_20_);}
	.st27{mask:url(#SVGID_18_);}
	.st28{clip-path:url(#SVGID_24_);fill-rule:evenodd;clip-rule:evenodd;fill:#D5002B;}
	.st29{filter:url(#Adobe_OpacityMaskFilter_4_);}
	.st30{clip-path:url(#SVGID_27_);}
	.st31{mask:url(#SVGID_25_);}
	.st32{clip-path:url(#SVGID_31_);fill-rule:evenodd;clip-rule:evenodd;fill:#D5002B;}
	.st33{filter:url(#Adobe_OpacityMaskFilter_5_);}
	.st34{clip-path:url(#SVGID_34_);}
	.st35{mask:url(#SVGID_32_);}
	.st36{clip-path:url(#SVGID_38_);fill-rule:evenodd;clip-rule:evenodd;fill:#D5002B;}
	.st37{filter:url(#Adobe_OpacityMaskFilter_6_);}
	.st38{clip-path:url(#SVGID_41_);}
	.st39{clip-path:url(#SVGID_43_);}
	.st40{mask:url(#SVGID_39_);}
</style>
<rect class="st0" width="500" height="500"/>







<g>
	<path class="st4" d="M81.2,233.2c-0.6,0.7-1.2,1.4-1.8,2c-4.6,4.6-9.3,9.3-13.9,13.9c-6.4,6.5-12.9,12.9-19.3,19.4   c-2.1,2.2-4.7,3.2-7.7,2.4c-2.9-0.8-4.7-2.6-5.5-5.5c-0.8-2.8-0.1-5.3,1.9-7.3c6.4-6.5,12.9-13,19.4-19.5   c9.2-9.2,18.4-18.4,27.5-27.6c7.6-7.6,15.1-15.3,22.6-23c1.3-1.3,1.3-1.3,2.6,0c2.9,2.9,5.8,5.8,8.8,8.7c0.8,0.8,0.8,1.2,0,2   c-5.9,5.9-11.8,11.8-17.7,17.7c-0.7,0.7-1,1.4-1,2.3c0,73,0,146.1,0,219.1c0,1.2,0.3,1.6,1.6,1.6c25.9,0,51.8,0,77.8,0   c1.5,0,1.6,0,1.6-1.6c0-31.4,0-62.8,0-94.2c0-8.9,6.4-15.3,15.3-15.3c38.1,0,76.2,0,114.2,0c7.6,0,13.6,5,14.9,12.5   c0.2,0.9,0.1,1.9,0.1,2.9c0,31.3,0,62.6,0,94c0,1.8,0,1.8,1.8,1.8c25.8,0,51.6,0,77.4,0c1.7,0,1.7,0,1.7-1.8   c0-72.9,0-145.8,0-218.6c0-1.2-0.4-2.1-1.2-2.9c-24.3-24.3-48.6-48.6-72.9-72.9c-26-26-52-52.1-78-78.1c-1.1-1.1-1.1-1.1-2.3,0   c-13.2,13.2-26.4,26.4-39.6,39.6c-1.1,1.1-1.1,1.1-2.2,0c-2.9-2.9-5.9-5.9-8.8-8.8c-0.7-0.7-0.8-1.1-0.1-1.9   c15.4-15.3,30.7-30.7,46-46c3.6-3.6,8.1-3.5,11.7,0.1c53.2,53.2,106.4,106.4,159.6,159.6c16.6,16.6,33.2,33.4,49.7,50   c2.5,2.5,3.2,5.8,1.9,8.7c-1.3,3-4.1,4.8-7.3,4.7c-2.1-0.1-3.8-0.9-5.3-2.4c-11.5-11.5-23-23-34.5-34.5c-0.3-0.3-0.7-0.6-1.3-1.2   c0,0.9,0,1.4,0,2c0,70.2,0,140.4,0,210.6c0,2-0.1,4-1.3,5.8c-1.7,2.7-4.3,3.7-7.4,3.7c-0.4,0-0.7,0-1.1,0c-30.8,0-61.6,0-92.4,0   c-1.2,0-2.3-0.1-3.5-0.3c-3.6-0.7-6.1-3.8-6.1-7.5c0-33.7,0-67.4,0-101.2c0-2.1,0-2.1-2.1-2.1c-36.5,0-73,0-109.6,0   c-0.4,0-0.9-0.1-1.3,0c-0.4,0.1-0.7,0.5-0.8,0.9c-0.1,0.4,0,0.9,0,1.3c0,33.5,0,67,0,100.6c0,3.7-1.8,6.6-5.1,7.7   c-1.2,0.4-2.6,0.6-3.9,0.6c-31.3,0-62.6,0-93.8,0c-3.6,0-6.6-1.2-8.1-4.8c-0.5-1.1-0.7-2.4-0.7-3.6c0-21.4,0-42.8,0-64.2   c0-49.2,0-98.3,0-147.5c0-0.5,0-1,0-1.5C81.4,233.4,81.3,233.3,81.2,233.2z"/>
	<path class="st4" d="M73.6,118.4c-0.1-29.5,23.7-55.5,55.5-55.5c31.8,0,56,26.2,55.5,56.5c-0.5,29.7-24.8,54.9-56.1,54.6   C97.8,173.7,73.5,148.5,73.6,118.4z M129.1,164.6c24.3,0.3,46.1-19.6,46.2-46.1c0.1-25.3-20.7-46.1-45.9-46.3   c-25.2-0.2-46.6,20.2-46.6,46.2C82.9,144.9,104.8,165,129.1,164.6z"/>
	<path class="st4" d="M190.5,229.2c-0.3-29.7,24.3-55.7,55.8-55.5c30.3,0.2,55.8,25.1,55.2,56.7c-0.6,30.4-25.8,54.6-55.9,54.4   C215.3,284.6,190.2,259.5,190.5,229.2z M246,275.5c24.9,0,46.2-19.9,46.2-46.2c0-25.9-20.7-46.1-45.8-46.3   c-25.8-0.2-46.6,20.6-46.6,46.2C199.7,254.8,220.5,275.5,246,275.5z"/>
	<path class="st4" d="M145.5,106.1c0.3,3-2.3,4.9-4.5,5c-2.5,0.1-4.5-1.9-4.7-4.6c-0.2-2.2-1.2-3.7-3.6-4c-2.3-0.4-4.8-0.4-7.1-0.1   c-3.3,0.5-3.9,3-3.5,5.9c0.1,0.5,0.5,1,0.9,1.4c2.4,2.3,5.3,4,8.4,5.3c4.4,1.9,8.2,4.5,11.5,8c4.5,4.9,3.6,16.2-3.9,20.1   c-1.4,0.7-2.9,1.2-4.3,1.7c-0.8,0.2-1.1,0.5-1.1,1.4c-0.1,2.8-1.9,4.7-4.5,4.7c-2.6,0-4.6-1.9-4.6-4.6c0-1.2-0.6-1.5-1.5-1.8   c-5.4-1.6-8.8-5.1-9.8-10.6c-0.3-1.4-0.1-3.1,0.4-4.4c0.7-1.9,2.9-2.7,5-2.3c2,0.4,3.4,2.1,3.6,4.3c0.3,2.6,1.3,3.8,3.8,4.4   c2.4,0.6,4.8,0.6,7.2,0c1.7-0.5,2.9-1.5,3.2-3.3c0.3-1.8,0.1-3.4-1.5-4.6c-2.5-1.9-5.2-3.5-8.1-4.8c-4.4-1.9-8.2-4.5-11.4-8.2   c-4.1-4.7-3.4-16,4.3-19.9c1.2-0.6,2.4-1.1,3.7-1.4c0.9-0.3,1.2-0.7,1.2-1.6c0-0.8,0-1.7,0.3-2.5c0.7-2.1,2.9-3.5,5.1-3.1   c2.2,0.3,3.8,2.2,3.9,4.5c0,2.3,0,2.3,2.2,3C141.6,95.5,145.5,100.4,145.5,106.1z"/>
	<path class="st4" d="M262.4,241.3c0,7.4-3.9,12.4-10.8,14.1c-0.9,0.2-1.2,0.6-1.2,1.5c0,2.6-2.1,4.7-4.7,4.6   c-2.5-0.1-4.5-2.1-4.5-4.7c0-1.1-0.3-1.5-1.4-1.8c-6.1-1.7-9.6-5.9-10.3-12.2c-0.3-2.6,1.4-5,3.8-5.4c2.6-0.4,5,1.4,5.4,4.1   c0.5,3.3,1.4,4.4,4.6,4.8c2.1,0.3,4.2,0.1,6.3-0.2c1.8-0.2,3-1.4,3.4-3.3c0.4-1.8,0.1-3.5-1.6-4.5c-2.4-1.6-4.9-3.2-7.5-4.5   c-3.9-1.9-7.4-4-10.6-6.9c-6.9-6.2-4.6-19.9,5.8-22.8c1.9-0.5,1.9-0.6,1.9-2.5c0-2.8,2-4.9,4.7-4.9c2.6,0,4.6,2.1,4.6,4.8   c0,0.2,0,0.4,0,0.6c-0.2,1.1,0.3,1.6,1.4,1.9c3.4,0.8,6.2,2.6,8.2,5.5c1.6,2.3,2.4,4.9,2.4,7.7c0,2.5-2,4.5-4.5,4.5   c-2.5,0.1-4.6-1.7-4.7-4.3c-0.1-2.2-1.2-3.6-3.3-4.2c-2.7-0.9-5.4-0.8-8.1,0c-1.6,0.5-2.6,1.6-2.8,3.2c-0.3,1.7-0.2,3.2,1.4,4.4   c2.5,2,5.1,3.6,8.1,4.8c4,1.7,7.6,4,10.7,7.2C261.4,235.4,262.6,238.3,262.4,241.3z"/>
</g>










































</svg>