<svg xmlns="http://www.w3.org/2000/svg" xmlns:xlink="http://www.w3.org/1999/xlink" version="1.1" id="Layer_1" x="0px" y="0px" viewBox="0 0 500 500" style="enable-background:new 0 0 500 500;" xml:space="preserve">
<style type="text/css">
	.st0{fill-rule:evenodd;clip-rule:evenodd;fill:none;}
	.st1{display:none;}
	.st2{display:inline;fill:#D5002B;}
	.st3{display:inline;}
	.st4{fill:#D5002B;}
	.st5{fill-rule:evenodd;clip-rule:evenodd;fill:#D5002B;}
	.st6{display:inline;fill-rule:evenodd;clip-rule:evenodd;fill:#D5002B;}
	.st7{display:none;fill:#D5002B;}
	.st8{fill:#EB6824;}
	.st9{fill:#E55025;}
	.st10{fill:#E22026;}
	.st11{fill:#AE2824;}
	.st12{fill:#FFFFFF;}
	.st13{display:inline;fill:none;}
	.st14{filter:url(#Adobe_OpacityMaskFilter);}
	.st15{enable-background:new    ;}
	.st16{clip-path:url(#SVGID_3_);}
	.st17{mask:url(#SVGID_1_);}
	.st18{clip-path:url(#SVGID_7_);fill-rule:evenodd;clip-rule:evenodd;fill:#D5002B;}
	.st19{filter:url(#Adobe_OpacityMaskFilter_1_);}
	.st20{clip-path:url(#SVGID_10_);}
	.st21{mask:url(#SVGID_8_);}
	.st22{filter:url(#Adobe_OpacityMaskFilter_2_);}
	.st23{clip-path:url(#SVGID_15_);}
	.st24{mask:url(#SVGID_13_);}
	.st25{filter:url(#Adobe_OpacityMaskFilter_3_);}
	.st26{clip-path:url(#SVGID_20_);}
	.st27{mask:url(#SVGID_18_);}
	.st28{clip-path:url(#SVGID_24_);fill-rule:evenodd;clip-rule:evenodd;fill:#D5002B;}
	.st29{filter:url(#Adobe_OpacityMaskFilter_4_);}
	.st30{clip-path:url(#SVGID_27_);}
	.st31{mask:url(#SVGID_25_);}
	.st32{clip-path:url(#SVGID_31_);fill-rule:evenodd;clip-rule:evenodd;fill:#D5002B;}
	.st33{filter:url(#Adobe_OpacityMaskFilter_5_);}
	.st34{clip-path:url(#SVGID_34_);}
	.st35{mask:url(#SVGID_32_);}
	.st36{clip-path:url(#SVGID_38_);fill-rule:evenodd;clip-rule:evenodd;fill:#D5002B;}
	.st37{filter:url(#Adobe_OpacityMaskFilter_6_);}
	.st38{clip-path:url(#SVGID_41_);}
	.st39{clip-path:url(#SVGID_43_);}
	.st40{mask:url(#SVGID_39_);}
</style>
<rect class="st0" width="500" height="500"/>
















<g>
	<path class="st4" d="M365.3,386.8c22.4-8.1,53.9-41.2,53.9-89.2c0-72.7-47.3-114.4-129.8-114.4c-28.6,0-58.1,8.1-87.9,24.1   c-21.7,11.7-39.2,25.5-48,34.1c-3.3-0.6-6.8-0.9-10.8-0.9c-18.8,0-39.1,17.3-39.1,45.1c0,9.6,2.5,16.4,4.7,20.7   c-5.1,11.1-20.6,47.2-26.8,89.9c-0.8,5.5-2.2,18.8,2.2,23.8c1.6,1.8,3.7,2.8,6,2.8c6.7,0,7.9-5.4,11-18.5l0-0.1   c1.1-4.8,2.4-10.3,4-15.7c7.1-24.9,24.9-51.2,37.2-61.3c7.9-6.5,12.3-6.3,15.9-5.1c25.9,8.2,38.2,4.2,48.1,1   c4.1-1.3,7.6-2.4,11.7-2.4c2.8,0,27.1,0.4,35.4,13c0.7,29.9,16.9,40.4,24,44.6c-0.3,7.2-1.1,17.8-1.8,22c-0.2,1.3-0.4,2.2-0.6,2.9   c-0.7-0.1-1.4-0.3-2.2-0.5l-0.2,0c-4.5-1-10.7-2.5-16.9-1.6c-15,2-28.3,5.7-34.7,9.8c-0.1,0.1-13,8.2-10.2,16.3   c1.1,3.3,4.4,5.3,8,4.9c0.7-0.1,2-0.2,3.6-0.5l1.7-0.2c6.2-0.8,17.6-2.2,20.9-2.3c4.7,0,9.7,0.6,12.3,1.3   c-0.2,2.6-1.4,7.7-3.2,12.5c-0.5,1.3-0.6,2.6-0.3,3.9c0.9,4,3.6,5.6,5.2,6.2c4.6,1.7,8.5-1,11.6-3.2l1.2-0.8c3-2,8.6-5.8,12.9-11.4   c1.2-1.6,2-3,2.5-4.1c1-2,1.9-3.5,10.5-7.4c4-1.8,9.4-4.2,9.9-12.8c0.1-1.7-0.1-3.8-0.5-7.7c-0.5-4.6-1.1-10.3-0.9-14.5   c0.4-8.1,1-11.8,1.5-13.4c3.1-0.9,5.9-1.9,8.9-3.4c5.1,8.7,9.2,12.5,11.8,14.8c0.4,0.4,0.7,0.7,1,0.9c0.2,1.1,0.1,4.3-1.6,12.6   l-0.1,0.4c-0.1,0.7-0.3,1.4-0.4,2l-0.7,2l-10.7,17.9c-0.1,0.1-0.1,0.2-0.2,0.2c-1.9,2.5-8.3,9.5-10.4,11.7   c-0.1,0.1-0.2,0.3-0.3,0.4c-4.7,5.8-13.4,16.7-5.9,25.3c2,2.3,5,3.5,8.7,3.5c4.9,0,9.8-2.1,12.8-4c0.4-0.2,0.7-0.5,1-0.8l14.3-13.7   c2.9-2.8,6.3-6.1,8.4-6.5c1.1-0.2,6.4,2.4,14.1,11.8c2.7,3.3,9,11.1,16.4,8c6.7-2.9,6.4-11.7,5.9-15.3c-1-8-4.3-13.1-8.6-18.9   c-2.4-3.3-5.3-5.6-7.6-7.5l-0.2-0.2c-0.7-0.6-2-1.6-2.5-2.1c-1.1-8.1-1.7-18.2-1.7-22.5C359.9,390.6,360.7,388.4,365.3,386.8z    M346.1,394.1c0,5.5,0.7,16.5,1.9,24.9v0c0.7,5,4.4,7.9,7.6,10.6c1.9,1.5,3.8,3.1,5.2,5c0.5,0.7,1,1.4,1.5,2.1   c-6.3-6.1-13.8-10.9-21-9.4c-6,1.3-10.6,5.7-15.1,10.1l-13.7,13.1c-0.3,0.2-0.5,0.3-0.8,0.4c0.8-1.3,2-2.9,3.8-5.1l0.2-0.3   c6.9-7.6,9.7-10.9,10.8-12.3c0.4-0.6,0.7-1,1.1-1.6l10.9-18.2c0.2-0.4,0.4-0.8,0.6-1.2l1.2-3.4c0.1-0.4,0.2-0.8,0.3-1.1   c0.2-0.8,0.3-1.7,0.5-2.7c1.7-8.4,2.9-15.8,0.7-21.1c-1-2.4-2.7-3.9-4.3-5.4c-2.5-2.3-6.3-5.7-11.4-15.7c-1-1.9-2.7-3.4-4.8-4.1   c-0.8-0.3-1.7-0.4-2.5-0.4c-1.3,0-2.6,0.3-3.7,0.9c-3.8,2-7.4,3.9-13.1,5.3c-7.2,1.8-8.9,10-9.7,25.5c-0.3,5.3,0.4,11.6,0.9,16.7   l0,0.3c0.2,1.8,0.5,4.6,0.5,5.3c0,0,0,0.1,0,0.1c-0.6,0.3-1.4,0.7-1.7,0.8c-12,5.4-14.5,8.8-17.1,13.6c-0.4,0.8-0.7,1.4-1.3,2.1   c-0.8,1.1-1.7,2.1-2.8,3.1c0.4-4.5-0.3-8-2-10.4c-3.2-4.2-10.7-5.8-16.8-6.3c1.7-0.3,3.4-0.5,5.3-0.8c3.7-0.5,8.3,0.5,12,1.4   c2.7,0.6,4.9,1.1,7,1.1c3.9,0,10.6-1.9,12.7-14.7c0.9-5.5,2-20.3,2-28c0-2.4-1.2-4.6-3.2-5.8c-0.7-0.4-1.4-0.9-2.3-1.4   c-6.5-3.8-18.6-10.7-18.6-35.4c0-1.1-0.3-2.2-0.8-3.2c-11-20.6-42.2-21.7-48.3-21.7c-6.3,0-11.2,1.6-16,3.1c-8.9,2.8-18,5.8-39.7-1   c-9.7-3.1-18.6-0.7-28.8,7.6c-9.1,7.4-18.9,20-27.1,34.6c4.7-15.2,10.4-30,16.3-42.2c1.1-2.4,0.8-5.2-0.8-7.3   c-0.2-0.2-4.2-5.5-4.2-15.9c0-19.4,13.1-31.3,25.3-31.3c5.7,0,8.8,0.8,10.5,1.2l0.1,0c0.4,0.1,0.7,0.2,1,0.2c2.4,0.5,5-0.3,6.6-2.2   c0.5-0.6,55.8-56.5,128.4-56.5c43.3,0,116,13.1,116,100.6c0,41.4-26.2,69.6-44.8,76.3C351,377.3,346.1,384.1,346.1,394.1z"/>
	<path class="st4" d="M337.5,229.3L337.5,229.3c-38.4-19.7-68.1-10.5-84-5.6c-2.1,0.6-3.7,1.2-5.2,1.5c-3.7,1-5.9,4.7-4.9,8.4   c1,3.6,4.7,5.9,8.4,4.9c1.7-0.4,3.5-1,5.8-1.7c14.1-4.4,40.2-12.5,73.6,4.7c1,0.5,2.1,0.8,3.1,0.8c2.6,0,4.9-1.4,6.1-3.7   c0.8-1.6,1-3.5,0.4-5.3C340.3,231.5,339.1,230.1,337.5,229.3z"/>
	<path class="st4" d="M296.7,159.8c34.6,0,62.8-28.2,62.8-62.8c0-34.6-28.2-62.8-62.8-62.8c-34.6,0-62.8,28.2-62.8,62.8   C233.9,131.7,262.1,159.8,296.7,159.8z M245.9,97c0-28,22.8-50.8,50.8-50.8c28,0,50.8,22.8,50.8,50.8s-22.8,50.8-50.8,50.8   C268.7,147.8,245.9,125.1,245.9,97z"/>
	<path class="st4" d="M296.9,115.8c-6.8,0-7.4-3.1-7.4-4c0.1-1.6-0.5-3.1-1.6-4.3c-1.1-1.2-2.6-1.9-4.1-1.9   c-1.6-0.1-3.1,0.5-4.3,1.5c-1.2,1.1-1.9,2.6-1.9,4.2c0,0.6-0.1,6.4,4.4,11c2.2,2.3,5.1,3.9,8.6,4.7v0.9c0,3.3,2.7,6,6,6s6-2.7,6-6   v-0.7c4.1-0.9,7.4-2.7,9.7-5.5c3.1-3.7,4.3-9,3.3-14.4c-1.3-7.3-11-12.7-15.1-14.7l-2.6-1c-4.2-2.1-7.8-5.1-8.2-5.9   c-0.1-0.7-0.4-3.2,0.8-4.6c1-1.1,3.1-1.8,6.1-1.8c6.7,0,7.4,2.9,7.4,4.1c-0.1,3.2,2.5,6,5.7,6.1c1.5,0.1,3.1-0.5,4.3-1.5   c1.2-1.1,1.9-2.6,2-4.2c0-0.6,0.1-6.4-4.4-11c-2.3-2.4-5.3-4-9-4.8v-1.9c0-3.3-2.7-6-6-6s-6,2.7-6,6V68c-3.9,0.9-7,2.7-9.3,5.4   c-3.1,3.7-4.3,9-3.3,14.4c1.3,7.3,11,12.7,15.1,14.7l2.6,1c4.2,2.1,7.8,5.1,8.2,5.9c0.2,1.5,0.2,3.4-0.8,4.6   C302,115.2,299.9,115.8,296.9,115.8z"/>
</g>

































</svg>