<svg xmlns="http://www.w3.org/2000/svg" xmlns:xlink="http://www.w3.org/1999/xlink" version="1.1" id="Layer_1" x="0px" y="0px" viewBox="0 0 500 500" style="enable-background:new 0 0 500 500;" xml:space="preserve">
<style type="text/css">
	.st0{fill-rule:evenodd;clip-rule:evenodd;fill:none;}
	.st1{display:none;}
	.st2{display:inline;fill:#D5002B;}
	.st3{display:inline;}
	.st4{fill:#D5002B;}
	.st5{fill-rule:evenodd;clip-rule:evenodd;fill:#D5002B;}
	.st6{display:inline;fill-rule:evenodd;clip-rule:evenodd;fill:#D5002B;}
	.st7{display:none;fill:#D5002B;}
	.st8{fill:#EB6824;}
	.st9{fill:#E55025;}
	.st10{fill:#E22026;}
	.st11{fill:#AE2824;}
	.st12{fill:#FFFFFF;}
	.st13{display:inline;fill:none;}
	.st14{filter:url(#Adobe_OpacityMaskFilter);}
	.st15{enable-background:new    ;}
	.st16{clip-path:url(#SVGID_3_);}
	.st17{mask:url(#SVGID_1_);}
	.st18{clip-path:url(#SVGID_7_);fill-rule:evenodd;clip-rule:evenodd;fill:#D5002B;}
	.st19{filter:url(#Adobe_OpacityMaskFilter_1_);}
	.st20{clip-path:url(#SVGID_10_);}
	.st21{mask:url(#SVGID_8_);}
	.st22{filter:url(#Adobe_OpacityMaskFilter_2_);}
	.st23{clip-path:url(#SVGID_15_);}
	.st24{mask:url(#SVGID_13_);}
	.st25{filter:url(#Adobe_OpacityMaskFilter_3_);}
	.st26{clip-path:url(#SVGID_20_);}
	.st27{mask:url(#SVGID_18_);}
	.st28{clip-path:url(#SVGID_24_);fill-rule:evenodd;clip-rule:evenodd;fill:#D5002B;}
	.st29{filter:url(#Adobe_OpacityMaskFilter_4_);}
	.st30{clip-path:url(#SVGID_27_);}
	.st31{mask:url(#SVGID_25_);}
	.st32{clip-path:url(#SVGID_31_);fill-rule:evenodd;clip-rule:evenodd;fill:#D5002B;}
	.st33{filter:url(#Adobe_OpacityMaskFilter_5_);}
	.st34{clip-path:url(#SVGID_34_);}
	.st35{mask:url(#SVGID_32_);}
	.st36{clip-path:url(#SVGID_38_);fill-rule:evenodd;clip-rule:evenodd;fill:#D5002B;}
	.st37{filter:url(#Adobe_OpacityMaskFilter_6_);}
	.st38{clip-path:url(#SVGID_41_);}
	.st39{clip-path:url(#SVGID_43_);}
	.st40{mask:url(#SVGID_39_);}
</style>
<rect class="st0" width="500" height="500"/>





<g>
	<path class="st4" d="M280.3,416.4c-45.2,0-90.5,0-135.7,0c-6.3,0-12.2-1.3-17.9-3.8c-1.2-0.5-2.6-0.7-3.9-1.2   c-11.2-4.3-18.6-12.3-22.6-23.6c-8.4-23.9-16.9-47.7-25.4-71.6C64.4,287.1,54,258,43.7,228.7c-4.8-13.8-2.3-26.4,7.2-37.5   c4.5-5.3,10.4-8.6,17-10.9c25.6-9,51.1-18.1,76.6-27.2c20.2-7.2,40.3-14.3,60.5-21.5c21.3-7.6,42.6-15.1,63.9-22.7   c20.2-7.2,40.3-14.3,60.5-21.5c3.7-1.3,7.4-2.7,11.4-3.1c8.4-1,16.2,0.7,23.5,5c7.7,4.6,13,11.1,16,19.6   c7.3,20.4,14.5,40.8,21.7,61.3c0.4,1.1,1,1.4,2.1,1.4c4-0.1,8.1-0.1,12.1,0c16,0.2,28.3,6.9,36.9,20.4c3.6,5.7,5.5,11.9,5.9,18.7   c0.1,2.1,0.2,4.2,0.2,6.3c0,52.4,0,104.8,0,157.2c0,20.7-15.1,38.5-35.6,41.6c-2.2,0.3-4.5,0.5-6.7,0.5   C371.4,416.4,325.8,416.4,280.3,416.4z M280.5,400.8c45.1,0,90.2,0,135.3,0c1.9,0,3.8,0,5.6-0.4c13-2.3,22-13.1,22-26.4   c0-53.4,0-106.7,0-160.1c0-1.1-0.1-2.2-0.2-3.2c-1.6-13.5-12.7-23.5-26.3-23.5c-91,0-182.1,0-273.1,0c-1.5,0-3,0.1-4.4,0.4   c-13.2,2.5-22.1,13.1-22.1,26.6c0,52.8,0,105.5,0,158.3c0,1.4,0.1,2.8,0.2,4.2c0.7,7.7,4.2,13.9,10.3,18.7c5,3.9,10.7,5.4,17,5.4   C190.1,400.7,235.3,400.8,280.5,400.8z M139.9,171.4c0,0.1,0,0.2,0.1,0.2c0.4,0,0.7,0,1.1,0c34.4,0,68.9,0,103.3,0   c1.1,0,2.1-0.2,3.1-0.6c21.1-7.3,42.2-14.7,63.3-22.1c19.5-6.8,39-13.6,58.6-20.4c1-0.3,1.1-0.8,0.7-1.7c-1.5-4.1-3-8.2-4.4-12.3   c-4.1-11.8-16-17.6-27.8-13.5c-11.3,4-22.6,8-33.9,12c-29.2,10.4-58.5,20.8-87.7,31.1c-21.8,7.8-43.7,15.5-65.5,23.3   C147.1,168.8,143.5,170.1,139.9,171.4z M120.8,178.1c-0.5,0.2-0.8,0.3-1,0.3c-6.7,2.4-13.3,4.7-20,7.1c-9.6,3.4-19.2,6.8-28.8,10.3   c-5.7,2.1-9.8,6-12.2,11.6c-2.2,5.1-2.4,10.3-0.6,15.6c1.3,3.8,2.7,7.5,4,11.3c0.3,1,0.7,1.1,1.7,0.8c12.3-4.3,24.7-8.6,37-12.9   c0.8-0.3,1.1-0.7,1.1-1.5c0-2.4,0-4.7,0-7.1c0-11.6,4.2-21.4,12.3-29.6C116.2,182,118.5,180.2,120.8,178.1z M101.7,345.5   c0.1,0,0.1,0,0.2,0c0-0.2,0-0.3,0-0.5c0-27.5,0-55.1,0-82.6c0-1.4-0.1-1.4-1.4-1c-8,2.8-15.9,5.5-23.9,8.3   c-1.6,0.6-1.6,0.6-1.1,2.2c6.1,17.1,12.1,34.1,18.2,51.2C96.4,330.6,99.1,338.1,101.7,345.5z M359,171.3c0,0.1,0,0.2,0,0.3   c2.5,0,5.1,0,7.6,0c6,0,11.9,0,17.9,0c1,0,1.4-0.2,1-1.3c-0.8-2-1.5-4-2.1-6.1c-0.3-1-0.8-1.2-1.7-0.8c-4.8,1.7-9.7,3.4-14.5,5.1   C364.4,169.5,361.7,170.4,359,171.3z"/>
	<path class="st4" d="M372.5,341c4.8,0,8.9,1.7,12.3,5c0.6,0.6,1,0.6,1.6,0c5.1-4.8,11.2-6.3,17.9-4.1c6.7,2.2,10.7,7,12,14   c1.7,9.3-5.1,18.9-14.5,20.3c-5.9,0.9-11-0.7-15.3-4.8c-0.8-0.8-1.2-0.4-1.8,0.2c-5,4.6-10.9,6.1-17.3,4.1   c-6.6-2-10.8-6.6-12.2-13.4C352.7,351.3,361.2,341,372.5,341z"/>
	<path class="st4" d="M202.9,248.1c0,7.2,0,14.3,0,21.5c0,1.6,0,1.6-1.6,1.6c-4.9,0-9.8,0-14.8,0c-1.1,0-1.5-0.3-1.5-1.5   c0-14.4,0-28.8,0-43.2c0-1,0.3-1.5,1.4-1.5c5,0.1,10.1,0,15.1,0c1.1,0,1.4,0.4,1.4,1.5C202.9,233.7,202.9,240.9,202.9,248.1z"/>
	<path class="st4" d="M160.6,225.1c2.6,0,5.1,0,7.7,0c0.9,0,1.3,0.3,1.3,1.2c0,4.6,0,9.3,0,13.9c0,0.9-0.3,1.3-1.3,1.3   c-5.2,0-10.4,0-15.6,0c-0.9,0-1.2-0.3-1.2-1.2c0-4.7,0-9.4,0-14c0-1,0.4-1.2,1.3-1.2C155.4,225.1,158,225.1,160.6,225.1z"/>
	<path class="st4" d="M160.5,254.8c2.6,0,5.2,0,7.8,0c0.9,0,1.3,0.3,1.3,1.2c0,4.6,0,9.3,0,13.9c0,0.9-0.4,1.3-1.3,1.3   c-5.2,0-10.3,0-15.5,0c-1,0-1.4-0.4-1.4-1.3c0-4.6,0-9.2,0-13.8c0-1,0.4-1.3,1.4-1.3C155.3,254.8,157.9,254.8,160.5,254.8z"/>
	<path class="st4" d="M361.4,325.2c0-1,0-2.1,0-3.1c0-0.7,0.3-1.1,1.1-1.1c2.1,0,4.2,0,6.4,0c0.8,0,1.1,0.3,1.1,1.1   c0,2.1,0,4.2,0,6.4c0,0.8-0.3,1.1-1.1,1.1c-2.1,0-4.2,0-6.4,0c-0.8,0-1.1-0.3-1.1-1.1C361.4,327.4,361.4,326.3,361.4,325.2z"/>
	<path class="st4" d="M381.8,325.2c0-1,0-2.1,0-3.1c0-0.7,0.2-1.1,1-1c2.2,0,4.4,0,6.6,0c0.7,0,0.9,0.3,0.9,1c0,2.2,0,4.4,0,6.6   c0,0.3-0.6,0.9-0.9,0.9c-2.2,0.1-4.4,0-6.6,0c-0.7,0-0.9-0.3-0.9-1C381.8,327.4,381.8,326.3,381.8,325.2z"/>
	<path class="st4" d="M406.5,321.1c1,0,2.1,0,3.1,0c0.7,0,1,0.3,1,0.9c0,2.2,0,4.4,0,6.6c0,0.3-0.6,0.9-0.9,0.9   c-2.2,0.1-4.4,0-6.6,0c-0.6,0-1-0.3-1-0.9c0-2.2,0-4.4,0-6.6c0-0.7,0.3-1,1-1C404.3,321.1,405.4,321.1,406.5,321.1z"/>
</g>












































</svg>