<svg xmlns="http://www.w3.org/2000/svg" xmlns:xlink="http://www.w3.org/1999/xlink" version="1.1" id="Layer_1" x="0px" y="0px" viewBox="0 0 500 500" style="enable-background:new 0 0 500 500;" xml:space="preserve">
<style type="text/css">
	.st0{fill-rule:evenodd;clip-rule:evenodd;fill:none;}
	.st1{display:none;}
	.st2{display:inline;fill:#D5002B;}
	.st3{display:inline;}
	.st4{fill:#D5002B;}
	.st5{fill-rule:evenodd;clip-rule:evenodd;fill:#D5002B;}
	.st6{display:inline;fill-rule:evenodd;clip-rule:evenodd;fill:#D5002B;}
	.st7{display:none;fill:#D5002B;}
	.st8{fill:#EB6824;}
	.st9{fill:#E55025;}
	.st10{fill:#E22026;}
	.st11{fill:#AE2824;}
	.st12{fill:#FFFFFF;}
	.st13{display:inline;fill:none;}
	.st14{filter:url(#Adobe_OpacityMaskFilter);}
	.st15{enable-background:new    ;}
	.st16{clip-path:url(#SVGID_3_);}
	.st17{mask:url(#SVGID_1_);}
	.st18{clip-path:url(#SVGID_7_);fill-rule:evenodd;clip-rule:evenodd;fill:#D5002B;}
	.st19{filter:url(#Adobe_OpacityMaskFilter_1_);}
	.st20{clip-path:url(#SVGID_10_);}
	.st21{mask:url(#SVGID_8_);}
	.st22{filter:url(#Adobe_OpacityMaskFilter_2_);}
	.st23{clip-path:url(#SVGID_15_);}
	.st24{mask:url(#SVGID_13_);}
	.st25{filter:url(#Adobe_OpacityMaskFilter_3_);}
	.st26{clip-path:url(#SVGID_20_);}
	.st27{mask:url(#SVGID_18_);}
	.st28{clip-path:url(#SVGID_24_);fill-rule:evenodd;clip-rule:evenodd;fill:#D5002B;}
	.st29{filter:url(#Adobe_OpacityMaskFilter_4_);}
	.st30{clip-path:url(#SVGID_27_);}
	.st31{mask:url(#SVGID_25_);}
	.st32{clip-path:url(#SVGID_31_);fill-rule:evenodd;clip-rule:evenodd;fill:#D5002B;}
	.st33{filter:url(#Adobe_OpacityMaskFilter_5_);}
	.st34{clip-path:url(#SVGID_34_);}
	.st35{mask:url(#SVGID_32_);}
	.st36{clip-path:url(#SVGID_38_);fill-rule:evenodd;clip-rule:evenodd;fill:#D5002B;}
	.st37{filter:url(#Adobe_OpacityMaskFilter_6_);}
	.st38{clip-path:url(#SVGID_41_);}
	.st39{clip-path:url(#SVGID_43_);}
	.st40{mask:url(#SVGID_39_);}
</style>
<rect class="st0" width="500" height="500"/>



<g>
	<g>
		<g>
			<path class="st4" d="M248.8,221.7c11.1,0,12.3,5.5,12.4,7.9c-0.1,4.1,3.1,7.5,7.2,7.7c4.1,0.2,7.7-3.1,7.8-7.3     c0-0.9,0.1-9.1-6.2-15.7c-3.5-3.6-8.1-5.9-13.7-7v-4.2c0-4.2-3.4-7.5-7.5-7.5s-7.5,3.4-7.5,7.5v4.2c-5.9,1.2-10.6,3.7-14,7.8     c-4.4,5.3-6.2,12.9-4.8,20.8c1.8,10.6,16.7,18.8,21.8,21.3l3.7,1.5c6,3,12.4,8,13.1,10.1c0.2,1.3,0.8,5.8-1.5,8.5     c-2.2,2.6-6.6,3.1-10,3.1c-11.1,0-12.4-5.6-12.4-7.8c0.2-4.1-3.1-7.7-7.2-7.8c-4.3-0.4-7.7,3.1-7.8,7.2     c-0.1,0.9-0.2,9.1,6.2,15.7c3.3,3.5,7.7,5.8,13.1,6.9v2.6c0,4.2,3.4,7.5,7.5,7.5s7.5-3.4,7.5-7.5v-2.4c6.2-1.1,11.1-3.7,14.7-7.9     c4.4-5.3,6.2-12.9,4.8-20.8c-1.8-10.6-16.7-18.8-21.8-21.3l-3.7-1.5c-6.1-3-12.4-8-13.1-10.1c-0.2-1.3-0.8-5.8,1.5-8.5     C241,222.2,245.4,221.7,248.8,221.7z"/>
			<path class="st4" d="M470.2,121l-1.3-0.7l-143.6-19.8l-0.8-0.1l-0.8,0c-8.4,0.6-18.8,9.7-23.1,13.7l-54,54.2H125.2     c-8.3,0-15,6.7-15,15v56.1L92.4,255c-3.4,1.1-12.2,4.1-24.8,9.4c-11.9,4.9-18.8,10.1-22.1,13c-3.2,0.1-8.6,0.2-12.3-0.1l-2-0.2     l-1.8,0.8c-3.6,1.6-15.2,10-15.2,49.7c0,40.2,13,49.8,15.6,51.3l1.3,0.7l143.6,19.8l0.8,0.1l0.8-0.1c8.4-0.6,18.8-9.7,23.1-13.7     l53.7-54h110.5c8.3,0,15-6.7,15-15v-46.5l29-25.4c3.4-1.1,12.2-4.1,24.8-9.4c11.9-4.9,18.8-10.1,22.1-13.1     c3.2-0.1,8.6-0.2,12.2,0.1l2,0.2l1.8-0.8c3.6-1.6,15.2-10,15.2-49.7C485.8,132.1,472.8,122.5,470.2,121z M188.8,375.1     c-4.5,4.3-10.6,8.6-13.1,9.4L37,365.4c-2.1-2.7-7.7-12.2-7.7-37.7c0-23.1,4.1-32.1,6.1-35.2c6.1,0.2,13.6-0.2,13.6-0.2l3.2-0.2     l2.1-2.3c0,0,5.3-5.8,19.1-11.5c15.5-6.4,25-9.4,25-9.4l1.5-0.5l49.7-43.6c0.8-0.8,4.8-4,8.4-4c1,0,2.4,0.2,4.2,2     c5.6,5.6-0.1,13.8-1.1,15.2l-37,59.2c-0.8,1.1-7.1,10.8-3.3,20.8l0.5,1.5c3.1,8.4,6.7,12.5,18.9,12.5h91.5L188.8,375.1z      M140.3,316.9c-2.1,0-3.3-0.1-3.8-0.2c-0.2-0.6-0.6-1.5-0.9-2.3l-0.6-1.6c-0.8-2.1,0.8-5.7,1.8-7.2l36.8-58.9     c5-6.7,11.2-22.4-0.7-34.4c-4.2-4.2-9.3-6.4-14.9-6.4c-10.2,0-18.1,7.5-18.6,8l-14.2,12.5l0-42.9l234.5-0.3     c2.1,0,3.3,0.1,3.8,0.2c0.2,0.6,0.6,1.5,0.9,2.3l0.6,1.6c0.8,2.1-0.8,5.7-1.8,7.2l-36.9,58.9c-5,6.7-11.2,22.4,0.7,34.4     c4.2,4.2,9.3,6.4,14.9,6.4c10.2,0,18.1-7.5,18.6-8l3-2.6l0,33.3L140.3,316.9z M464.5,207.4c-6.1-0.2-13.5,0.2-13.5,0.2l-3.2,0.2     l-2.1,2.3c0,0-5.3,5.8-19.1,11.5c-15.5,6.4-25,9.4-25.1,9.4l-1.5,0.5l-49.7,43.6c-0.8,0.8-4.8,4-8.4,4c-1,0-2.4-0.2-4.2-2     c-5.6-5.6,0.1-13.8,1.1-15.2l37-59.2c0.7-1.1,7-10.8,3.3-20.8l-0.6-1.5c-3.1-8.4-6.7-12.5-18.9-12.5h-91.5l43-43.2     c4.5-4.3,10.6-8.6,13.1-9.4L463,134.6c2.1,2.7,7.7,12.2,7.7,37.7C470.7,195.4,466.5,204.4,464.5,207.4z"/>
		</g>
	</g>
</g>














































</svg>