<svg xmlns="http://www.w3.org/2000/svg" xmlns:xlink="http://www.w3.org/1999/xlink" version="1.1" id="Layer_1" x="0px" y="0px" viewBox="0 0 500 500" style="enable-background:new 0 0 500 500;" xml:space="preserve">
<style type="text/css">
	.st0{fill:none;}
	.st1{display:none;}
	.st2{display:inline;fill:#D5002B;}
	.st3{display:inline;}
	.st4{fill:#D5002B;}
	.st5{display:none;fill:#D5002B;}
	.st6{fill:#EB6824;}
	.st7{fill:#E55025;}
	.st8{fill:#E22026;}
	.st9{fill:#AE2824;}
	.st10{fill:#FFFFFF;}
	.st11{display:inline;fill:none;}
	.st12{clip-path:url(#SVGID_2_);fill:#D5002B;}
	.st13{clip-path:url(#SVGID_4_);fill:#D5002B;}
	.st14{clip-path:url(#SVGID_7_);fill:#D5002B;}
	.st15{clip-path:url(#SVGID_9_);fill:#D5002B;}
</style>
<rect x="0" class="st0" width="500" height="500"/>

















































<rect x="0" class="st0" width="500" height="500"/>
<g>
	<path class="st4" d="M240.9,332.6c0-25-0.1-49.9-0.1-74.9c0-9.6-9.6-17.5-17.9-17.5c-11.1,0-45.2-0.4-45.2-0.4s-3.9,12.6-12.3,12.6   c-8.4,0-12.5-12.6-12.5-12.6s-63.4,0.7-91.2,0.3c-7.8-0.1-13.1,2.5-16.8,9.4c-1.7,3.2-5.3,4.3-9.1,2.7c-3.8-1.6-4.8-5-4.4-8.5   c0.7-5.5,1.6-11,3.3-16.2c28.4-92.6,91.1-146,186-162.5c9.2-1.6,19-0.1,23.1-12.7c2.1-6.4,10.6-6.1,12.4,0.7   c3,11.2,10.8,10.3,19.1,11.6c92.4,14.4,155.4,64.9,187.1,153.4c2.6,7.1,4.2,14.6,5.8,22.1c0.9,4.2,0.5,8.5-3.9,10.8   c-4.5,2.4-8.8,0.8-10.6-3.2c-3.8-8.4-10.9-7.3-17.7-7.4c-26.3-0.1-66.7,0-93,0c0,0-4.7,11.7-11.7,11.7c-7,0-12.1-11.7-12.1-11.7   c-62.9-0.3-61.2-0.3-61.2,43.4c0,40.9-0.3,81.8,0.2,122.7c0.2,21.1,13.5,32.4,31.5,28.2c10.8-2.5,16-9.9,18.3-20.3   c1.2-5.4,3.1-11.7,10.6-9.7c7.2,1.9,6,8.4,5.4,13.9c-1.7,15.9-16.2,30.5-32.7,33.3c-19.9,3.3-38.6-6.3-46-24   c-3.5-8.4-4.4-17.4-4.3-26.5C241.1,378.3,241,355.5,240.9,332.6z M248.7,223c20.1,0,40.2-0.3,60.2,0.1c10.5,0.2,15.5-3.7,14.3-14.7   c-5-48.1-22.5-89.5-61.9-119.9c-7.5-5.8-13.8-6.8-21.9-0.6c-41.8,31.5-59,75.3-63.2,125.6c-0.8,9.8,6.1,9.4,12.3,9.4   C208.5,223.1,228.6,223,248.7,223z M214.5,85.5c-60.5,4.2-132.1,56.6-157.2,126c-2.9,8.1-0.8,11.6,7.9,11.6   c24.2-0.1,48.5,0.1,72.7,0c20.7-0.1,20.6-0.2,22.8-21.9c0.6-5.5,1.5-11,2.5-16.4C170.2,147.9,186.1,115.4,214.5,85.5z M286.8,87.3   c34,35.4,49.3,77,53.3,123c0.9,10,5.4,12.9,14.5,12.8c24.2-0.2,48.5,0.2,72.7-0.1c18-0.2,19.4-2.5,11.7-19.4   c-26.8-59-71.7-97.3-133.5-116C300.2,86,295,83.9,286.8,87.3z"/>
</g>
</svg>