<svg xmlns="http://www.w3.org/2000/svg" xmlns:xlink="http://www.w3.org/1999/xlink" version="1.1" id="Layer_1" x="0px" y="0px" viewBox="0 0 500 500" style="enable-background:new 0 0 500 500;" xml:space="preserve">
<style type="text/css">
	.st0{fill-rule:evenodd;clip-rule:evenodd;fill:none;}
	.st1{display:none;}
	.st2{display:inline;fill:#D5002B;}
	.st3{display:inline;}
	.st4{fill:#D5002B;}
	.st5{fill-rule:evenodd;clip-rule:evenodd;fill:#D5002B;}
	.st6{display:inline;fill-rule:evenodd;clip-rule:evenodd;fill:#D5002B;}
	.st7{display:none;fill:#D5002B;}
	.st8{fill:#EB6824;}
	.st9{fill:#E55025;}
	.st10{fill:#E22026;}
	.st11{fill:#AE2824;}
	.st12{fill:#FFFFFF;}
	.st13{display:inline;fill:none;}
	.st14{filter:url(#Adobe_OpacityMaskFilter);}
	.st15{enable-background:new    ;}
	.st16{clip-path:url(#SVGID_3_);}
	.st17{mask:url(#SVGID_1_);}
	.st18{clip-path:url(#SVGID_7_);fill-rule:evenodd;clip-rule:evenodd;fill:#D5002B;}
	.st19{filter:url(#Adobe_OpacityMaskFilter_1_);}
	.st20{clip-path:url(#SVGID_10_);}
	.st21{mask:url(#SVGID_8_);}
	.st22{filter:url(#Adobe_OpacityMaskFilter_2_);}
	.st23{clip-path:url(#SVGID_15_);}
	.st24{mask:url(#SVGID_13_);}
	.st25{filter:url(#Adobe_OpacityMaskFilter_3_);}
	.st26{clip-path:url(#SVGID_20_);}
	.st27{mask:url(#SVGID_18_);}
	.st28{clip-path:url(#SVGID_24_);fill-rule:evenodd;clip-rule:evenodd;fill:#D5002B;}
	.st29{filter:url(#Adobe_OpacityMaskFilter_4_);}
	.st30{clip-path:url(#SVGID_27_);}
	.st31{mask:url(#SVGID_25_);}
	.st32{clip-path:url(#SVGID_31_);fill-rule:evenodd;clip-rule:evenodd;fill:#D5002B;}
	.st33{filter:url(#Adobe_OpacityMaskFilter_5_);}
	.st34{clip-path:url(#SVGID_34_);}
	.st35{mask:url(#SVGID_32_);}
	.st36{clip-path:url(#SVGID_38_);fill-rule:evenodd;clip-rule:evenodd;fill:#D5002B;}
	.st37{filter:url(#Adobe_OpacityMaskFilter_6_);}
	.st38{clip-path:url(#SVGID_41_);}
	.st39{clip-path:url(#SVGID_43_);}
	.st40{mask:url(#SVGID_39_);}
</style>
<rect class="st0" width="500" height="500"/>




<g>
	<path class="st4" d="M280.3,416.4c-45.2,0-90.4,0-135.6,0c-6.1,0-12-1.2-17.6-3.6c-2-0.8-4.2-1.3-6.2-2.1   c-10.2-4.5-16.9-12.1-20.6-22.6c-10.6-30-21.3-59.9-31.9-89.9c-8.3-23.4-16.7-46.9-25-70.3c-5.8-16.4,1.3-35.6,16.5-44   c3.7-2.1,7.9-3.5,11.9-5c30.3-10.8,60.7-21.6,91.1-32.4c23.8-8.5,47.6-16.9,71.4-25.4c29.3-10.4,58.6-20.8,87.9-31.2   c4.6-1.6,9.1-3.4,13.7-4.7c18.5-4.9,37.8,5.4,44.1,23.5c7.2,20.4,14.4,40.7,21.6,61.1c0.5,1.3,1.1,1.8,2.5,1.8   c4.1-0.1,8.2,0,12.4,0c20,0,37,13.4,41.4,32.9c0.7,3.2,1.1,6.5,1.1,9.7c0.1,53.2,0.1,106.3,0,159.5c0,17-7.9,29.7-22.7,37.9   c-5.9,3.3-12.4,4.8-19.1,4.8C371.6,416.4,326,416.4,280.3,416.4z M280.4,400.8c45.1,0,90.2,0,135.4,0c1.9,0,3.8,0,5.6-0.4   c12.9-2.2,22.1-13.1,22.1-26.2c0-25.4,0-50.8,0-76.2c0-28.1,0-56.2,0-84.4c0-4.3-0.9-8.4-3-12.2c-5.2-9.3-13.2-14.1-23.9-14.1   c-90.2,0-180.3,0-270.5,0c-1.8,0-3.5,0-5.3,0.2c-6.2,0.7-11.4,3.3-15.7,7.7c-5.2,5.3-7.6,11.8-7.6,19.2c0,52.6,0,105.2,0,157.8   c0,1.4,0.1,2.9,0.2,4.3c0.6,7.9,4.2,14.2,10.4,19c4.9,3.8,10.6,5.3,16.8,5.3C190,400.8,235.2,400.8,280.4,400.8z M139.9,171.4   c0,0.1,0,0.1,0,0.2c0.3,0,0.7,0.1,1,0.1c34.9,0,69.7,0,104.6,0c0.8,0,1.7-0.1,2.5-0.4c22.5-7.8,45-15.7,67.5-23.5   c17.9-6.3,35.9-12.5,53.8-18.7c1-0.3,1.2-0.7,0.9-1.7c-1.6-4.2-3.1-8.5-4.6-12.8c-4.2-11.7-16-17.5-27.8-13.4   c-5.1,1.8-10.3,3.6-15.4,5.4c-25.7,9.1-51.4,18.2-77.1,27.4c-32.1,11.4-64.3,22.8-96.4,34.2C146,169.2,142.9,170.3,139.9,171.4z    M120.7,178.2c-0.3,0.1-0.4,0.1-0.5,0.1c-16.2,5.7-32.3,11.4-48.5,17.2c-11.9,4.3-17.5,16-13.4,27.9c1.3,3.7,2.7,7.4,3.9,11.1   c0.4,1.2,0.9,1.2,1.9,0.9c12.2-4.3,24.4-8.5,36.6-12.8c0.9-0.3,1.2-0.7,1.2-1.7c0-4-0.1-8.1,0.3-12.1c0.9-9.5,5-17.6,11.6-24.4   C115.9,182.2,118.3,180.3,120.7,178.2z M101.8,345.6c0.1,0,0.1,0,0.2,0c0-0.4,0-0.9,0-1.3c0-26.8,0-53.6,0-80.4   c0-2.5,0-2.5-2.3-1.7c-7.8,2.7-15.5,5.4-23.3,8.1c-0.9,0.3-1.1,0.7-0.7,1.6c0.3,0.7,0.6,1.5,0.8,2.3c7.7,21.6,15.3,43.2,23,64.9   C100.2,341.2,101,343.4,101.8,345.6z M360,171.4c0,0.1,0,0.2,0,0.2c8.3,0,16.6,0,24.9,0c0.8,0,0.9-0.3,0.6-1   c-0.8-2.1-1.5-4.1-2.2-6.2c-0.3-0.9-0.7-1-1.5-0.7c-1.4,0.5-2.9,1-4.3,1.5C371.7,167.3,365.9,169.3,360,171.4z"/>
	<path class="st4" d="M361.2,331.7c6-0.1,11.2,2,15.5,6.2c0.7,0.7,1.2,0.7,1.9,0c6.7-6.2,14.5-8,23.1-4.9c8.5,3,13.4,9.4,14.7,18.3   c1.7,12-7.2,23.5-19.3,25c-7.2,0.9-13.3-1.2-18.6-6.1c-0.8-0.8-1.2-0.6-1.9,0.1c-6.7,6.1-14.4,8-23,4.9c-8.5-3-13.6-9.4-14.8-18.3   c-1.6-12.3,7.2-23.4,19.5-25C359.3,331.6,360.3,331.7,361.2,331.7z"/>
	<path class="st4" d="M181.4,248c0-7.1,0-14.2,0-21.3c0-1.6,0-1.6,1.6-1.6c5,0,9.9,0,14.9,0c1.2,0,1.6,0.3,1.6,1.5   c0,14.4,0,28.8,0,43.2c0,1.1-0.3,1.5-1.4,1.5c-5.1,0-10.2,0-15.2,0c-1.1,0-1.4-0.4-1.4-1.5C181.4,262.5,181.4,255.3,181.4,248z"/>
	<path class="st4" d="M157.1,225.1c2.6,0,5.1,0,7.7,0c1,0,1.4,0.3,1.4,1.3c0,4.6,0,9.2,0,13.8c0,1-0.3,1.3-1.3,1.3   c-5.2,0-10.3,0-15.5,0c-0.9,0-1.3-0.3-1.3-1.2c0-4.6,0-9.3,0-13.9c0-1,0.4-1.3,1.4-1.3C151.9,225.1,154.5,225.1,157.1,225.1z"/>
	<path class="st4" d="M157.1,254.8c2.6,0,5.1,0,7.7,0c1,0,1.4,0.3,1.4,1.3c0,4.6,0,9.2,0,13.8c0,1-0.4,1.4-1.3,1.4   c-5.2,0-10.3,0-15.5,0c-0.9,0-1.3-0.3-1.3-1.2c0-4.6,0-9.3,0-13.9c0-0.9,0.3-1.3,1.2-1.3C151.9,254.8,154.5,254.8,157.1,254.8z"/>
</g>













































</svg>