<svg xmlns="http://www.w3.org/2000/svg" xmlns:xlink="http://www.w3.org/1999/xlink" version="1.1" id="Layer_1" x="0px" y="0px" viewBox="0 0 500 500" style="enable-background:new 0 0 500 500;" xml:space="preserve">
<style type="text/css">
	.st0{fill-rule:evenodd;clip-rule:evenodd;fill:none;}
	.st1{display:none;}
	.st2{display:inline;fill:#D5002B;}
	.st3{display:inline;}
	.st4{fill:#D5002B;}
	.st5{fill-rule:evenodd;clip-rule:evenodd;fill:#D5002B;}
	.st6{display:inline;fill-rule:evenodd;clip-rule:evenodd;fill:#D5002B;}
	.st7{display:none;fill:#D5002B;}
	.st8{fill:#EB6824;}
	.st9{fill:#E55025;}
	.st10{fill:#E22026;}
	.st11{fill:#AE2824;}
	.st12{fill:#FFFFFF;}
	.st13{display:inline;fill:none;}
	.st14{filter:url(#Adobe_OpacityMaskFilter);}
	.st15{enable-background:new    ;}
	.st16{clip-path:url(#SVGID_3_);}
	.st17{mask:url(#SVGID_1_);}
	.st18{clip-path:url(#SVGID_7_);fill-rule:evenodd;clip-rule:evenodd;fill:#D5002B;}
	.st19{filter:url(#Adobe_OpacityMaskFilter_1_);}
	.st20{clip-path:url(#SVGID_10_);}
	.st21{mask:url(#SVGID_8_);}
	.st22{filter:url(#Adobe_OpacityMaskFilter_2_);}
	.st23{clip-path:url(#SVGID_15_);}
	.st24{mask:url(#SVGID_13_);}
	.st25{filter:url(#Adobe_OpacityMaskFilter_3_);}
	.st26{clip-path:url(#SVGID_20_);}
	.st27{mask:url(#SVGID_18_);}
	.st28{clip-path:url(#SVGID_24_);fill-rule:evenodd;clip-rule:evenodd;fill:#D5002B;}
	.st29{filter:url(#Adobe_OpacityMaskFilter_4_);}
	.st30{clip-path:url(#SVGID_27_);}
	.st31{mask:url(#SVGID_25_);}
	.st32{clip-path:url(#SVGID_31_);fill-rule:evenodd;clip-rule:evenodd;fill:#D5002B;}
	.st33{filter:url(#Adobe_OpacityMaskFilter_5_);}
	.st34{clip-path:url(#SVGID_34_);}
	.st35{mask:url(#SVGID_32_);}
	.st36{clip-path:url(#SVGID_38_);fill-rule:evenodd;clip-rule:evenodd;fill:#D5002B;}
	.st37{filter:url(#Adobe_OpacityMaskFilter_6_);}
	.st38{clip-path:url(#SVGID_41_);}
	.st39{clip-path:url(#SVGID_43_);}
	.st40{mask:url(#SVGID_39_);}
</style>
<rect class="st0" width="500" height="500"/>










































<g>
	<g>
		<g>
			<path class="st4" d="M238.7,188.8l-11.9-37c-1.7-5.6-4.5-7.2-8.9-7.2h-22.1c1.7,0.7,2.9,5.2,2.9,5.2l10.7,37.1     c1.2,4.7,5.1,7.1,9.5,7.1h23.5C240.5,193.8,238.7,188.8,238.7,188.8"/>
			<path class="st4" d="M274.1,188.8l11.9-37c1.7-5.6,4.6-7.2,8.9-7.2H317c-1.7,0.7-2.9,5.2-2.9,5.2l-10.7,37.1     c-1.2,4.7-5.1,7.1-9.5,7.1h-23.5C272.2,193.8,274.1,188.8,274.1,188.8"/>
			<rect x="243.4" y="144.9" class="st4" width="26.1" height="49.1"/>
			<path class="st5" d="M410.4,434V65.5c0-3.6-3-6.6-6.6-6.6H96.2c-3.7,0-6.6,3-6.6,6.6v369c0,3.7,3,6.6,6.6,6.6h112.6     c3.7,0,6.6-3,6.6-6.6l0-116.1h72.5l-0.8,116c0,1.8,0.7,3.5,1.9,4.7c1.2,1.3,2.9,2,4.7,2h109.1C410.9,441.1,410.4,434,410.4,434      M397.2,427.9h-96.8l0.8-116c0-1.8-0.7-3.5-1.9-4.7c-1.2-1.3-2.9-2-4.7-2h-85.7c-3.7,0-6.6,3-6.6,6.6l0,116.1h-99.4V72.1h294.4     V427.9z"/>
		</g>
	</g>
</g>







</svg>