<svg xmlns="http://www.w3.org/2000/svg" xmlns:xlink="http://www.w3.org/1999/xlink" version="1.1" id="Layer_1" x="0px" y="0px" viewBox="0 0 500 500" style="enable-background:new 0 0 500 500;" xml:space="preserve">
<style type="text/css">
	.st0{display:none;}
	.st1{display:inline;fill:#D5002B;}
	.st2{display:inline;}
	.st3{fill:#D5002B;}
	.st4{display:none;fill:#D5002B;}
	.st5{fill:#EB6824;}
	.st6{fill:#E55025;}
	.st7{fill:#E22026;}
	.st8{fill:#AE2824;}
	.st9{fill:#FFFFFF;}
	.st10{display:inline;fill:none;}
	.st11{clip-path:url(#SVGID_2_);fill:#D5002B;}
	.st12{clip-path:url(#SVGID_4_);fill:#D5002B;}
	.st13{clip-path:url(#SVGID_7_);fill:#D5002B;}
	.st14{clip-path:url(#SVGID_9_);fill:#D5002B;}
</style>

















































<path class="st3" d="M487.9,154.3c-0.6-2.9-3.1-4.9-6-4.9h-84.6c-20.9,0-33.2,9.8-39.9,31.8L312,322.7c-1.6,4.4-3.8,8.6-5.8,11.6  V156.6c0-3.4-2.7-6.1-6.1-6.1h-100c-3.4,0-6.1,2.7-6.1,6.1V335c-2-3-4.3-7.5-6.1-12.4l-45.5-141.4c-6.8-22.3-18.7-31.8-39.9-31.8  H18.1c-2.9,0-5.3,2-6,4.9c-0.6,2.8,1,5.7,3.7,6.8c1.7,0.8,5.4,8,7.6,15.8v0c0,0,0,0.1,0,0.1L64.3,319c5,19.5,21.1,31.6,42.2,31.6  h89.9c0.7,0,1.3-0.1,1.9-0.3c0.6,0.2,1.2,0.3,1.9,0.3h100c0.6,0,1.2-0.1,1.8-0.3c0.5,0.2,1.1,0.3,1.7,0.3h89.9  c21.1,0,37.3-12.1,42.2-31.5l40.9-142c0,0,0-0.1,0-0.1v0c2.1-7.8,5.9-15,7.6-15.8C486.9,160,488.5,157.1,487.9,154.3z M469.4,161.5  c-1.7,3.5-3.2,7.7-4.4,12.2l-40.9,142c0,0,0,0.1,0,0.1v0c-3.6,14.1-15,22.6-30.5,22.6H318c2.6-4.5,4.5-9,5.3-11.7  c0.1-0.1,0.1-0.2,0.2-0.4L369,184.7c5.9-19.3,15.2-23.2,28.3-23.2H469.4z M294.1,162.7v175.7h-87.8V162.7H294.1z M75.9,315.7  L35,173.7c-1.2-4.5-2.8-8.7-4.4-12.2h72c13.4,0,22.4,3.8,28.3,23.3l45.6,141.7c0,0.1,0.1,0.1,0.1,0.2c0,0,0,0,0,0.1  c0.9,2.5,2.8,7.2,5.4,11.7h-75.5c-15.5,0-26.9-8.4-30.5-22.6v0C76,315.8,76,315.7,75.9,315.7z"/>
</svg>